SplineFontDB: 3.2
FontName: Woodrun-Regular
FullName: Woodrun Regular
FamilyName: Woodrun
Weight: Regular
Copyright: Copyright (c) 2024, Zamero Type Foundry
UComments: "2024-9-3: Created with FontForge (http://fontforge.org+AAoACgAK-This looks like a font in Happy Tree Frineds, LOL. I know what that is, by the way."
Version: 001.000
ItalicAngle: 0
UnderlinePosition: -100
UnderlineWidth: 50
Ascent: 800
Descent: 200
InvalidEm: 0
LayerCount: 2
Layer: 0 0 "Back" 1
Layer: 1 0 "Fore" 0
XUID: [1021 474 1118879153 12477]
StyleMap: 0x0000
FSType: 0
OS2Version: 0
OS2_WeightWidthSlopeOnly: 0
OS2_UseTypoMetrics: 1
CreationTime: 1725405229
ModificationTime: 1725972595
PfmFamily: 81
TTFWeight: 400
TTFWidth: 5
LineGap: 90
VLineGap: 90
OS2TypoAscent: 0
OS2TypoAOffset: 1
OS2TypoDescent: 0
OS2TypoDOffset: 1
OS2TypoLinegap: 90
OS2WinAscent: 0
OS2WinAOffset: 1
OS2WinDescent: 0
OS2WinDOffset: 1
HheadAscent: 0
HheadAOffset: 1
HheadDescent: 0
HheadDOffset: 1
OS2Vendor: 'ZAM '
Lookup: 1 0 0 "'ss01' Style Set 1 in Latin lookup 1" { "'ss01' Style Set 1 in Latin lookup 1-1" ("ss01") } ['ss01' ('DFLT' <'dflt' > 'latn' <'dflt' > ) ]
Lookup: 4 0 1 "'liga' Standard Ligatures in Latin lookup 0" { "'liga' Standard Ligatures in Latin lookup 0-1"  } ['liga' ('DFLT' <'dflt' > 'latn' <'dflt' > ) ]
Lookup: 258 0 0 "'kern' Horizontal Kerning in Latin lookup 0" { "'kern' Horizontal Kerning in Latin lookup 0-1" [150,15,2] } ['kern' ('DFLT' <'dflt' > 'latn' <'dflt' > ) ]
MarkAttachClasses: 1
DEI: 91125

StartChar: H
Encoding: 72 72 1
Width: 797
Flags: W
HStem: 263.108 166.082<337.585 481.041> 276.322 140.224<210.24 353.696> 717.83 20G<50 228.745 437.82 706.583>
VStem: 50 177.754<596.61 734.052> 51.9629 212.527<-3.29883 137.921>
LayerCount: 2
Fore
SplineSet
50 734.051757812 m 5x30
 227.75390625 737.830078125 l 5x30
 264.490234375 -3.298828125 l 5
 51.962890625 -9.7607421875 l 5x28
 50 734.051757812 l 5x30
747.6015625 -2.154296875 m 5
 442.501953125 -5.9326171875 l 5
 437.8203125 738.625 l 5
 705.453125 743.967773438 l 5
 747.6015625 -2.154296875 l 5
199.298828125 416.545898438 m 5x60
 490.109375 429.190429688 l 5
 481.041015625 263.108398438 l 5xa0
 210.240234375 276.322265625 l 5
 199.298828125 416.545898438 l 5x60
EndSplineSet
Validated: 5
EndChar

StartChar: O
Encoding: 79 79 2
Width: 835
Flags: W
HStem: -14.6885 222.272<340.71 487.789> 526.612 219.47<341.505 495.041>
VStem: 35 233.395<287.611 450.389> 563.427 236.835<283.648 454.041>
LayerCount: 2
Fore
SplineSet
35 360.314453125 m 4
 35 605.284566003 206.572904558 746.08203125 420.172851562 746.08203125 c 4
 653.677857202 746.08203125 800.26171875 564.934114168 800.26171875 371.081054688 c 4
 800.26171875 126.111862359 628.690706884 -14.6884765625 415.087890625 -14.6884765625 c 4
 181.585754949 -14.6884765625 35 166.463269815 35 360.314453125 c 4
268.39453125 369.150390625 m 4
 268.39453125 290.338900206 323.415829296 207.583984375 412.96484375 207.583984375 c 4
 512.754498536 207.583984375 563.426757812 289.946154578 563.426757812 368.747070312 c 4
 563.426757812 447.449172335 515.76672263 526.612304688 422.420898438 526.612304688 c 4
 318.647532934 526.612304688 268.39453125 447.842322159 268.39453125 369.150390625 c 4
EndSplineSet
Validated: 1
EndChar

StartChar: I
Encoding: 73 73 3
Width: 411
Flags: W
HStem: -0.448242 21G<59.9326 356.897> 544.703 228.721<115.631 296.069>
VStem: 50 311.697<602.14 715.987>
LayerCount: 2
Fore
SplineSet
59.9326171875 -0.4482421875 m 5
 69.03515625 495.732421875 l 5
 334.123046875 491.754882812 l 5
 356.897460938 -0.4482421875 l 5
 59.9326171875 -0.4482421875 l 5
50 659.063476562 m 0
 50 722.223632812 119.77734375 773.423828125 205.850585938 773.423828125 c 0
 291.923828125 773.423828125 361.697265625 722.223632812 361.697265625 659.063476562 c 0
 361.697265625 595.905273438 291.923828125 544.703125 205.850585938 544.703125 c 0
 119.77734375 544.703125 50 595.905273438 50 659.063476562 c 0
EndSplineSet
Validated: 1
Substitution2: "'ss01' Style Set 1 in Latin lookup 1-1" I.ss01
EndChar

StartChar: V
Encoding: 86 86 4
Width: 729
Flags: W
HStem: 707.324 20G<118.385 282.196 556.683 640.443>
LayerCount: 2
Fore
SplineSet
519.22265625 -3.78125 m 1
 237.833007812 -7.1611328125 l 1
 10 693.525390625 l 1
 275.477539062 727.32421875 l 1
 421.39453125 292.948242188 l 1
 563.212890625 727.32421875 l 1
 719.833984375 686.764648438 l 1
 519.22265625 -3.78125 l 1
EndSplineSet
EndChar

StartChar: W
Encoding: 87 87 5
Width: 975
Flags: W
LayerCount: 2
Fore
SplineSet
397.216796875 -20.142578125 m 1
 199.765625 -12.2294921875 l 1
 10 694.358398438 l 1
 266.986328125 744.33984375 l 1
 357.30859375 449.369140625 l 1
 499.626953125 682.075195312 l 1
 596.833984375 679.701171875 l 1
 717.314453125 449.369140625 l 1
 801.8828125 735.411132812 l 1
 965.68359375 701.254882812 l 1
 794.646484375 6.7197265625 l 1
 606.201171875 -6.4921875 l 1
 498.021484375 189.471679688 l 1
 397.216796875 -20.142578125 l 1
EndSplineSet
Validated: 1
EndChar

StartChar: X
Encoding: 88 88 6
Width: 757
Flags: W
VStem: 319.088 118.857<218.689 503.067>
LayerCount: 2
Fore
SplineSet
437.9453125 503.067382812 m 5
 441.359375 218.689453125 l 5
 144.306640625 -26.681640625 l 5
 10 91.796875 l 5
 198.640625 359.958984375 l 5
 10 639.016601562 l 5
 143.65234375 752.62890625 l 5
 437.9453125 503.067382812 l 5
319.087890625 503.067382812 m 5
 613.3828125 752.62890625 l 5
 747.03515625 639.016601562 l 5
 558.39453125 359.958984375 l 5
 747.03515625 91.796875 l 5
 612.73046875 -26.681640625 l 5
 315.673828125 218.689453125 l 5
 319.087890625 503.067382812 l 5
EndSplineSet
Validated: 5
EndChar

StartChar: Y
Encoding: 89 89 7
Width: 769
Flags: W
HStem: 725.825 20G<134.464 183.76 589.065 642.927>
LayerCount: 2
Fore
SplineSet
167.314453125 745.825195312 m 1
 386.59765625 479.151367188 l 1
 605.48046875 745.825195312 l 1
 759.142578125 663.755859375 l 1
 533.755859375 292.165039062 l 1
 557.341796875 -6.478515625 l 5
 201.607421875 2.5595703125 l 5
 230.513671875 300.07421875 l 1
 10 650.048828125 l 1
 167.314453125 745.825195312 l 1
EndSplineSet
Validated: 1
EndChar

StartChar: Z
Encoding: 90 90 8
Width: 720
Flags: W
HStem: -15.8125 247.611<389.459 652.234>
LayerCount: 2
Fore
SplineSet
652.234375 -15.8125 m 5
 49.4033203125 -7.8994140625 l 5
 30 143.395507812 l 5
 321.80859375 448.056640625 l 5
 52.1162109375 426.296875 l 5
 39.9501953125 729.494140625 l 5
 683.57421875 730.072265625 l 5
 690.04296875 575.576171875 l 5
 389.458984375 234.407226562 l 5
 669.235351562 231.798828125 l 5
 652.234375 -15.8125 l 5
EndSplineSet
Validated: 1
EndChar

StartChar: Q
Encoding: 81 81 9
Width: 888
Flags: W
HStem: -14.6885 250.972<283.642 536.39> 545.313 190.769<273.392 514.142>
VStem: 30 173.837<295.101 468.511> 467.577 327.687<311.47 480.052>
LayerCount: 2
Fore
SplineSet
30 370.583984375 m 0
 30 561.755888399 172.157451118 736.08203125 405.587890625 736.08203125 c 0
 619.256981348 736.08203125 795.263671875 592.715573354 795.263671875 350.811523438 c 0
 795.263671875 159.637703012 653.105250349 -14.6884765625 419.673828125 -14.6884765625 c 0
 206.008572712 -14.6884765625 30 128.680828469 30 370.583984375 c 0
203.836914062 379.744140625 m 0
 203.836914062 303.976777428 248.767759101 236.283203125 327.86328125 236.283203125 c 4
 412.159995208 236.283203125 467.577148438 308.959413874 467.577148438 398.147460938 c 0
 467.577148438 474.096709833 421.426639126 545.313476562 342.149414062 545.313476562 c 4
 262.19409744 545.313476562 203.836914062 473.836858538 203.836914062 379.744140625 c 0
491.744140625 149.385742188 m 1
 608.875 285.041015625 l 1
 672.497070312 212.770507812 766.44140625 146.06640625 888.895507812 84.59375 c 1
 756.841796875 -81.435546875 l 1
 643.198242188 -37.125 564.00390625 51.65234375 491.744140625 149.385742188 c 1
EndSplineSet
Validated: 5
EndChar

StartChar: R
Encoding: 82 82 10
Width: 733
Flags: W
HStem: 574.812 169<219.784 356.244>
VStem: 388.608 265.473<434.009 546.727>
LayerCount: 2
Fore
SplineSet
265.182617188 275.28515625 m 2
 286.829101562 1.3330078125 l 1
 65.2314453125 -11.931640625 l 1
 30 715.504882812 l 1
 30 715.504882812 137.719726562 743.811523438 324.756835938 743.811523438 c 0
 539.935546875 743.811523438 654.081054688 655.955078125 654.081054688 497.162109375 c 0
 654.081054688 338.368164062 522.530273438 264.91796875 379.758789062 264.91796875 c 0
 312.334960938 264.91796875 265.182617188 275.28515625 265.182617188 275.28515625 c 2
388.608398438 487.961914062 m 0
 388.608398438 555.5 332.23828125 574.811523438 284.43359375 574.811523438 c 0
 249.249023438 574.811523438 218.708007812 567.102539062 218.708007812 567.102539062 c 1
 229.401367188 406.291015625 l 1
 229.401367188 406.291015625 242.702148438 402.403320312 267.7578125 402.403320312 c 0
 337.767578125 402.403320312 388.608398438 427.801757812 388.608398438 487.961914062 c 0
406.150390625 381.197265625 m 1
 562.390625 251.857421875 652.224609375 193.85546875 733.307617188 155.596679688 c 1
 555.379882812 -78.3642578125 l 1
 439.038085938 4.9912109375 328.377929688 116.180664062 230.543945312 277.247070312 c 1
 406.150390625 381.197265625 l 1
EndSplineSet
Validated: 5
EndChar

StartChar: S
Encoding: 83 83 11
Width: 686
Flags: W
HStem: -12.5732 219.843<161.737 385.852> 560.993 183.977<242.078 485.704>
VStem: 65.0088 165.475<481.112 595.555> 400.643 255.485<127.304 288.333>
LayerCount: 2
Fore
SplineSet
367.73046875 744.969726562 m 4
 544.911026906 744.969726562 644.873046875 687.719726562 644.873046875 687.719726562 c 5
 589.663085938 497.153320312 l 5
 589.663085938 497.153320312 481.897377162 560.993164062 337.138671875 560.993164062 c 4
 253.341796875 560.993164062 230.483398438 539.772460938 230.483398438 511.596679688 c 4
 230.483398438 405.883789062 656.127929688 468.200195312 656.127929688 200.151367188 c 4
 656.127929688 54.4561547699 536.310533824 -12.5732421875 329.033203125 -12.5732421875 c 4
 130.67578125 -12.5732421875 20 55.404296875 20 55.404296875 c 5
 66.0693359375 266.584960938 l 5
 66.0693359375 266.584960938 174.47265625 207.26953125 295.002929688 207.26953125 c 4
 359.182372392 207.26953125 400.642578125 220.862304688 400.642578125 261.07421875 c 4
 400.642578125 367.649414062 65.0087890625 302.596679688 65.0087890625 543.4296875 c 4
 65.0087890625 644.249901701 146.556640625 744.969726562 367.73046875 744.969726562 c 4
EndSplineSet
Validated: 1
EndChar

StartChar: T
Encoding: 84 84 12
Width: 715
Flags: W
HStem: 435.78 294.118<457.733 673.612>
VStem: 249.698 204.162<4.45215 218.237> 263.821 193.912<221.995 435.78>
LayerCount: 2
Fore
SplineSet
30 716.399414062 m 5xa0
 673.612304688 729.8984375 l 5
 685.797851562 433.803710938 l 5
 457.733398438 435.780273438 l 5xa0
 453.860351562 -4.548828125 l 5
 249.698242188 4.4521484375 l 5xc0
 263.821289062 435.780273438 l 5
 35.8134765625 424.802734375 l 5
 30 716.399414062 l 5xa0
EndSplineSet
Validated: 1
EndChar

StartChar: U
Encoding: 85 85 13
Width: 754
Flags: W
HStem: -11.2881 299.997<305.855 462.308> 717.129 19.2705G<84.0488 268.205 525.948 653.32>
VStem: 30 211.303<258.231 586.509> 525.82 198.487<237.529 535.72>
LayerCount: 2
Fore
SplineSet
653.3203125 737.12890625 m 5
 653.3203125 737.12890625 724.307617188 526.31151283 724.307617188 322.9375 c 0
 724.307617188 152.120119371 640.986998342 -11.2880859375 382.37890625 -11.2880859375 c 0
 110.044100164 -11.2880859375 30 168.862908728 30 347.598632812 c 0
 30 542.967802989 84.048828125 736.399414062 84.048828125 736.399414062 c 1
 279.552734375 715.166992188 l 1
 279.552734375 715.166992188 241.302734375 572.532976345 241.302734375 443.438476562 c 0
 241.302734375 361.625721308 278.639058042 288.708984375 383.258789062 288.708984375 c 0
 489.842729064 288.708984375 525.8203125 364.111474513 525.8203125 448.306640625 c 0
 525.8203125 573.640829593 486.716796875 710.96875 486.716796875 710.96875 c 5
 653.3203125 737.12890625 l 5
EndSplineSet
EndChar

StartChar: L
Encoding: 76 76 14
Width: 649
Flags: W
HStem: 6.21973 273.594<383.079 612.666>
VStem: 50 202.752<268.84 527.591> 59.6406 200.842<312.526 729.898>
LayerCount: 2
Fore
SplineSet
619.06640625 6.2197265625 m 5xc0
 50 -8.703125 l 5xc0
 59.640625 729.8984375 l 5
 260.482421875 731.168945312 l 5xa0
 252.751953125 268.83984375 l 5
 612.666015625 279.813476562 l 5
 619.06640625 6.2197265625 l 5xc0
EndSplineSet
Validated: 1
EndChar

StartChar: M
Encoding: 77 77 15
Width: 928
Flags: W
HStem: -1.41602 21G<750.869 851.271>
LayerCount: 2
Fore
SplineSet
349.099609375 763.135742188 m 1
 468.891601562 509.720703125 l 1
 588.78125 750.787109375 l 1
 794.126953125 745.26953125 l 1
 918.716796875 32.7333984375 l 1
 755.938476562 -1.416015625 l 1
 664.313476562 360.05078125 l 1
 508.01171875 75.021484375 l 1
 410.52734375 72.3505859375 l 1
 273.694335938 360.05078125 l 1
 176.645507812 -10.349609375 l 1
 10 30.6357421875 l 1
 143.755859375 759.720703125 l 1
 349.099609375 763.135742188 l 1
EndSplineSet
Validated: 1
EndChar

StartChar: N
Encoding: 78 78 16
Width: 777
Flags: W
HStem: -0.873047 21G<484.225 727.754> 724.333 10.0508G<57.1895 333.507 561.02 727.241>
VStem: 50 164.508<4.93555 366.009> 57.1895 153.848<23.9085 366.009> 562.273 164.953<622.693 734.384>
LayerCount: 2
Fore
SplineSet
50 4.935546875 m 5xe8
 57.189453125 724.931640625 l 5
 321.783203125 744.333007812 l 5
 539.607421875 372.727539062 l 5
 562.2734375 734.383789062 l 5
 727.2265625 734.383789062 l 5
 727.75390625 5.59375 l 5
 499.9765625 -0.873046875 l 5
 211.037109375 366.008789062 l 5xd8
 214.5078125 -4.7646484375 l 5
 50 4.935546875 l 5xe8
EndSplineSet
Validated: 1
EndChar

StartChar: P
Encoding: 80 80 17
Width: 693
Flags: W
HStem: 225.987 167.777<248.293 447.335> 553.953 189.858<232.067 374.688>
VStem: 65.1885 194.598<0.855856 132.612> 398.568 264.472<421.121 532.026>
LayerCount: 2
Fore
SplineSet
286.770507812 393.764648438 m 0
 344.696289062 393.764648438 398.568359375 410.110351562 398.568359375 474.87890625 c 0
 398.568359375 543.830078125 345.305664062 553.953125 294.434570312 553.953125 c 0
 260.50390625 553.953125 228.663085938 544.603515625 228.663085938 544.603515625 c 1
 235.708007812 400.825195312 l 1
 235.708007812 400.825195312 257.697265625 393.764648438 286.770507812 393.764648438 c 0
247.874023438 236.353515625 m 1
 259.786132812 1.3330078125 l 1
 65.1884765625 -11.931640625 l 1
 29.9599609375 715.504882812 l 1
 29.9599609375 715.504882812 137.678710938 743.811523438 324.71484375 743.811523438 c 0
 539.891601562 743.811523438 663.040039062 643.934570312 663.040039062 481.346679688 c 0
 663.040039062 289.848632812 518.720703125 225.987304688 375.94921875 225.987304688 c 0
 308.525390625 225.987304688 247.874023438 236.353515625 247.874023438 236.353515625 c 1
EndSplineSet
EndChar

StartChar: J
Encoding: 74 74 18
Width: 681
Flags: W
HStem: -19.1504 188.56<246.217 368.913>
VStem: 404.302 173.862<209.291 417.297>
LayerCount: 2
Fore
SplineSet
651.739257812 482.958984375 m 5
 42.6171875 455.942382812 l 5
 30 709.381835938 l 5
 637.139648438 751.552734375 l 5
 651.739257812 482.958984375 l 5
269.125976562 591.448242188 m 5
 442.453125 635.950195312 l 5
 442.453125 635.950195312 578.1640625 483.056640625 578.1640625 286.861328125 c 4
 578.1640625 101.044921875 481.74609375 -19.150390625 294.71484375 -19.150390625 c 4
 107.680664062 -19.150390625 44.9443359375 86.2802734375 44.9443359375 86.2802734375 c 5
 184.616210938 258.65234375 l 5
 184.616210938 258.65234375 230.853515625 169.409179688 313.83984375 169.409179688 c 4
 379.622070312 169.409179688 404.301757812 230.569335938 404.301757812 296.654296875 c 4
 404.301757812 475.88671875 269.125976562 591.448242188 269.125976562 591.448242188 c 5
EndSplineSet
Validated: 5
EndChar

StartChar: K
Encoding: 75 75 19
Width: 764
Flags: W
VStem: 50 182.417<587.57 753.047> 82.0459 164.813<1.38574 160.972>
LayerCount: 2
Fore
SplineSet
246.859375 1.3857421875 m 5x40
 82.0458984375 -4.5048828125 l 5x40
 50 753.046875 l 5
 232.416992188 761.600585938 l 5x80
 246.859375 1.3857421875 l 5x40
467.432617188 763.40625 m 5
 734.29296875 629.567382812 l 5
 672.491210938 504.86328125 598.532226562 417.358398438 459.059570312 325.861328125 c 5
 548.509765625 231.036132812 622.301757812 171.598632812 730.461914062 110.127929688 c 5
 612.158203125 -39.5224609375 l 5
 425.385742188 62.0439453125 285.891601562 200.405273438 160.48828125 349.731445312 c 5
 262.610351562 456.255859375 392.15234375 563.651367188 467.432617188 763.40625 c 5
EndSplineSet
EndChar

StartChar: A
Encoding: 65 65 20
Width: 756
Flags: W
HStem: 107.107 134.937<437.78 599.709> 127.383 131.559<146.318 292.613>
LayerCount: 2
Fore
SplineSet
237.612304688 730.033203125 m 5x00
 519.00390625 733.415039062 l 5
 746.836914062 19.2265625 l 5
 593.85546875 -14.5732421875 l 5
 380.438476562 409.478515625 l 5
 166.622070312 -14.5732421875 l 5
 10 25.9873046875 l 5
 237.612304688 730.033203125 l 5x00
146.318359375 258.94140625 m 5x40
 599.708984375 242.043945312 l 5
 599.708984375 107.107421875 l 5x80
 130.684570312 127.3828125 l 5
 146.318359375 258.94140625 l 5x40
EndSplineSet
Validated: 5
EndChar

StartChar: B
Encoding: 66 66 21
Width: 714
Flags: W
HStem: -11.1982 168.271<204.938 466.665> 306.483 141.622<198.939 318.778> 581.693 162.118<177.75 421.788>
VStem: 338.679 297.65<468.866 557.52> 379.204 305.56<183.221 283.648>
LayerCount: 2
Fore
SplineSet
50 701.24609375 m 1xe8
 50 701.24609375 161.129882812 743.811523438 327.766601562 743.811523438 c 0
 515.80859375 743.811523438 636.329101562 692.682617188 636.329101562 541.879882812 c 0xf0
 636.329101562 415.819335938 494.353515625 396.4375 494.353515625 396.4375 c 1
 494.353515625 396.4375 684.763671875 380.404296875 684.763671875 195.427734375 c 0
 684.763671875 64.267578125 568.87890625 -11.1982421875 364.451171875 -11.1982421875 c 0
 186.760742188 -11.1982421875 78.482421875 11.1953125 78.482421875 11.1953125 c 1
 50 701.24609375 l 1xe8
238.490234375 581.693359375 m 0
 195.844726562 581.693359375 177.627929688 575.005859375 177.627929688 575.005859375 c 1
 180.790039062 450.752929688 l 1
 180.790039062 450.752929688 206.28515625 448.10546875 236.833984375 448.10546875 c 0
 283.571289062 448.10546875 338.678710938 461.255859375 338.678710938 510.875 c 0
 338.678710938 573.190429688 272.490234375 581.693359375 238.490234375 581.693359375 c 0
263.490234375 306.483398438 m 0
 219.313476562 306.483398438 198.923828125 298.999023438 198.923828125 298.999023438 c 1
 202.461914062 159.912109375 l 1
 202.461914062 159.912109375 232.634765625 157.072265625 268.124023438 157.072265625 c 0
 320.340820312 157.072265625 379.204101562 174.064453125 379.204101562 233.284179688 c 0xe8
 379.204101562 303.856445312 307.490234375 306.483398438 263.490234375 306.483398438 c 0
EndSplineSet
Validated: 1
EndChar

StartChar: C
Encoding: 67 67 22
Width: 742
Flags: W
HStem: -14.6846 186.107<403.969 556.451> 551.086 188.996<394.701 540.597>
VStem: 30 304.11<251.042 478.247>
LayerCount: 2
Fore
SplineSet
416.112304688 -14.6845703125 m 4
 195.518857971 -14.6845703125 30 126.112876923 30 371.081054688 c 4
 30 561.832473293 160.965570651 740.08203125 409.776367188 740.08203125 c 4
 609.788881854 740.08203125 700.428710938 604.427734375 700.428710938 604.427734375 c 5
 595.184570312 486.135742188 l 5
 595.184570312 486.135742188 543.55078125 551.0859375 457.780273438 551.0859375 c 4
 372.260209515 551.0859375 334.110351562 470.957542519 334.110351562 361.331054688 c 4
 334.110351562 248.407172588 381.723926147 171.422851562 478.4921875 171.422851562 c 4
 576.908203125 171.422851562 638.895507812 243.73828125 638.895507812 243.73828125 c 5
 722.4296875 112.814453125 l 5
 722.4296875 112.814453125 628.550439451 -14.6845703125 416.112304688 -14.6845703125 c 4
EndSplineSet
Validated: 1
EndChar

StartChar: D
Encoding: 68 68 23
Width: 789
Flags: W
HStem: -10.0684 166.205<217.308 450.128> 555.416 190.248<225.81 459.61>
VStem: 50 165.521<158.391 279.11> 69.5684 154.543<475.558 551.706> 431.826 327.775<241.321 467.341>
LayerCount: 2
Fore
SplineSet
69.568359375 722.514648438 m 1xd8
 69.568359375 722.514648438 196.486328125 745.6640625 363.124023438 745.6640625 c 0
 556.096679688 745.6640625 759.6015625 656.643554688 759.6015625 363.731445312 c 0
 759.6015625 70.8193359375 553.034179688 -10.068359375 347.22265625 -10.068359375 c 0
 169.53125 -10.068359375 50 32.1533203125 50 32.1533203125 c 1xe8
 69.568359375 722.514648438 l 1xd8
215.520507812 158.390625 m 2
 215.520507812 158.390625 228.366210938 156.13671875 247.80078125 156.13671875 c 0
 312.525390625 156.13671875 431.826171875 177.541992188 431.826171875 347.647460938 c 0
 431.826171875 506 365.245117188 555.416015625 267.065429688 555.416015625 c 0
 242.689453125 555.416015625 224.111328125 551.706054688 224.111328125 551.706054688 c 1xd8
 215.520507812 158.390625 l 2
EndSplineSet
Validated: 1
EndChar

StartChar: E
Encoding: 69 69 24
Width: 645
Flags: W
HStem: -17.7754 174.74<464.519 605.867> 558.934 179.965<342.791 590.981>
VStem: 332.701 14.2656<296.957 420.073>
LayerCount: 2
Fore
SplineSet
57.41015625 727.088867188 m 5
 608.705078125 738.8984375 l 5
 590.981445312 565.803710938 l 5
 342.791015625 558.93359375 l 5
 346.966796875 159.380859375 l 5
 615.040039062 156.96484375 l 5
 605.8671875 -17.775390625 l 5
 50 9.7529296875 l 5
 57.41015625 727.088867188 l 5
330.98046875 420.073242188 m 5
 552.930664062 434.727539062 l 5
 545.905273438 276.4375 l 5
 332.701171875 296.95703125 l 5
 330.98046875 420.073242188 l 5
EndSplineSet
Validated: 5
EndChar

StartChar: F
Encoding: 70 70 25
Width: 633
Flags: W
HStem: 456.305 282.594<282.456 591.425>
VStem: 50 200.843<0.451172 406.662> 58.3594 184.749<115.867 449.277>
LayerCount: 2
Fore
SplineSet
591.424804688 738.8984375 m 1xa0
 603.025390625 456.3046875 l 1
 243.108398438 449.27734375 l 1xa0
 250.842773438 0.451171875 l 1
 50 -2.7783203125 l 1xc0
 58.359375 726.821289062 l 1
 591.424804688 738.8984375 l 1xa0
225.294921875 338.95703125 m 5
 516.103515625 340.446289062 l 5
 507.037109375 192.047851562 l 5
 236.236328125 213.038085938 l 5
 225.294921875 338.95703125 l 5
EndSplineSet
Validated: 5
EndChar

StartChar: G
Encoding: 71 71 26
Width: 775
Flags: W
HStem: -13.6494 213.362<283.019 438.849> 494.923 245.946<285.635 545.796>
VStem: 30 172.3<275.696 420.238>
LayerCount: 2
Fore
SplineSet
409.490234375 740.869140625 m 4
 597.12109375 740.869140625 664.227539062 664.983398438 664.227539062 664.983398438 c 5
 602.96875 451.34765625 l 5
 602.96875 451.34765625 518.394075879 494.922851562 396.646484375 494.922851562 c 4
 275.24656513 494.922851562 202.299804688 433.854751046 202.299804688 350.620117188 c 4
 202.299804688 267.040169875 266.287306189 199.712890625 385.444335938 199.712890625 c 4
 510.863620433 199.712890625 549.95703125 290.779296875 549.95703125 290.779296875 c 5
 590.724609375 154.991210938 l 5
 590.724609375 154.991210938 514.303583462 -13.6494140625 338 -13.6494140625 c 4
 135.271484375 -13.6494140625 30 171.807012304 30 365.51171875 c 4
 30 603.869977064 194.272169863 740.869140625 409.490234375 740.869140625 c 4
745.780273438 377.715820312 m 5
 714.146484375 -2.599609375 l 5
 531.65625 3.96875 l 5
 503.557617188 361.782226562 l 5
 745.780273438 377.715820312 l 5
EndSplineSet
Validated: 5
EndChar

StartChar: zero
Encoding: 48 48 53
Width: 775
Flags: W
HStem: -14.6885 234.169<299.723 474.028> 514.712 231.37<296.18 481.37>
VStem: 30 186.955<296.538 439.004> 555.203 189.994<293.43 443.349>
LayerCount: 2
Fore
SplineSet
30 360.314453125 m 0
 30 605.284566003 180.388671875 746.08203125 390.03125 746.08203125 c 0
 619.28125 746.08203125 745.197265625 564.934114168 745.197265625 371.081054688 c 0
 745.197265625 126.111862359 594.806640625 -14.6884765625 385.162109375 -14.6884765625 c 4
 155.9140625 -14.6884765625 30 166.463269815 30 360.314453125 c 0
216.955078125 368.8828125 m 0
 216.955078125 296.006835938 280.1328125 219.48046875 382.91796875 219.48046875 c 0
 499.546875 219.48046875 555.203125 295.65625 555.203125 368.533203125 c 0
 555.203125 441.412109375 501.546875 514.711914062 393.0703125 514.711914062 c 0
 274.43359375 514.711914062 216.955078125 441.76171875 216.955078125 368.8828125 c 0
EndSplineSet
Validated: 1
EndChar

StartChar: one
Encoding: 49 49 54
Width: 561
Flags: W
HStem: 723.968 20G<216.188 484.579>
LayerCount: 2
Fore
SplineSet
511.970703125 1.845703125 m 5
 206.87109375 -1.9326171875 l 5
 226.0859375 470.35546875 l 1
 190.5234375 449.689453125 144.236328125 425.369140625 61.306640625 420.512695312 c 1
 30 546.953125 l 1
 125.552734375 594.96875 186.951171875 657.833007812 216.1875 738.625 c 1
 483.8203125 743.967773438 l 1
 511.970703125 1.845703125 l 5
EndSplineSet
Validated: 1
EndChar

StartChar: two
Encoding: 50 50 55
Width: 662
Flags: W
HStem: -2.3125 247.614<421.516 615.35> 511.082 234.991<221.694 382.781>
VStem: 401.439 222.436<423.943 598.444>
LayerCount: 2
Fore
SplineSet
615.349609375 -2.3125 m 1
 39.77734375 5.6005859375 l 1
 32.294921875 229.892578125 l 1
 32.294921875 229.892578125 401.439453125 334.658291553 401.439453125 451.549804688 c 4
 401.439453125 485.41079135 371.948189293 511.08203125 330.29296875 511.08203125 c 4
 211.63671875 511.08203125 95.43359375 422.831054688 95.43359375 422.831054688 c 1
 30 662.765625 l 1
 30 662.765625 136.939453125 746.073242188 323.98828125 746.073242188 c 0
 499.340586639 746.073242188 623.875 673.269169379 623.875 523.619140625 c 0
 623.875 341.047851562 421.515625 247.909179688 421.515625 247.909179688 c 1
 632.93359375 245.301757812 l 1
 615.349609375 -2.3125 l 1
EndSplineSet
Validated: 1
EndChar

StartChar: three
Encoding: 51 51 56
Width: 699
Flags: W
HStem: -13.4834 226.702<115.014 361.816> 568.557 174.633<55.3203 323.648>
VStem: 391.82 278.092<241.196 335.683>
LayerCount: 2
Fore
SplineSet
55.3203125 743.189453125 m 1
 605.35546875 738.323242188 l 1
 622.390625 579.2578125 l 1
 437.29296875 471.534179688 l 1
 437.29296875 471.534179688 669.912109375 466.216796875 669.912109375 255.18359375 c 0
 669.912109375 100.982421875 541.25 -13.4833984375 309.521484375 -13.4833984375 c 0
 128.365234375 -13.4833984375 30 35.19140625 30 35.19140625 c 1
 76.765625 246.524414062 l 1
 76.765625 246.524414062 163.244140625 213.21875 257.716796875 213.21875 c 0
 345.24609375 213.21875 391.8203125 238.546875 391.8203125 289.696289062 c 0
 391.8203125 337.745117188 350.46875 364.688476562 280.013671875 364.688476562 c 0
 205.498046875 364.688476562 165.33203125 350.055664062 165.33203125 350.055664062 c 1
 145.86328125 463.865234375 l 1
 323.6484375 574.041015625 l 1
 43.498046875 568.556640625 l 1
 55.3203125 743.189453125 l 1
EndSplineSet
Validated: 1
EndChar

StartChar: four
Encoding: 52 52 57
Width: 706
Flags: W
HStem: 228.916 72.249<384.189 542.039> 244.645 64.4307<283.797 310.088> 727.897 20G<204.855 345.495>
LayerCount: 2
Fore
SplineSet
684.27734375 228.916015625 m 1xa0
 10 244.64453125 l 1x60
 147.861328125 480.145507812 183.36328125 568.301757812 226.34765625 747.897460938 c 1
 406.435546875 717.66796875 l 1
 388.1796875 614.145507812 365.630859375 513.194335938 318.21875 416.444335938 c 1
 686.1171875 410.236328125 l 1
 684.27734375 228.916015625 l 1xa0
283.796875 309.075195312 m 1
 542.0390625 301.165039062 l 1xa0
 570.125 3.021484375 l 5
 254.890625 -5.94140625 l 5
 283.796875 309.075195312 l 1
EndSplineSet
Validated: 5
EndChar

StartChar: five
Encoding: 53 53 58
Width: 662
Flags: W
HStem: -12.3125 196.488<152.746 411.818> 329.926 131.564<131.936 374.079> 546.593 192.48<221.262 601.85> 547.198 183.966<221.262 543.33>
VStem: 328.936 303.572<203.096 291.082>
LayerCount: 2
Fore
SplineSet
601.849609375 739.073242188 m 5xe8
 610.43359375 546.592773438 l 5xe8
 221.26171875 547.198242188 l 5
 209.326171875 457.221679688 l 5
 209.326171875 457.221679688 256.40625 461.490234375 299.845703125 461.490234375 c 4
 448.312402646 461.490234375 632.5078125 427.801757812 632.5078125 218.978515625 c 4
 632.5078125 67.0396494669 499.647895694 -12.3125 323.98828125 -12.3125 c 4
 130.576994481 -12.3125 20 53.998046875 20 53.998046875 c 5
 85.431640625 244.430664062 l 5
 85.431640625 244.430664062 155.263671875 184.17578125 252.79296875 184.17578125 c 4
 297.373623889 184.17578125 328.935546875 209.848996195 328.935546875 243.712890625 c 4
 328.935546875 313.694335938 241.299156852 329.92578125 165.42578125 329.92578125 c 4
 98.4453125 329.92578125 53.79296875 322.4453125 53.79296875 322.4453125 c 5
 92.775390625 731.1640625 l 5xd8
 601.849609375 739.073242188 l 5xe8
EndSplineSet
Validated: 1
EndChar

StartChar: six
Encoding: 54 54 59
Width: 696
Flags: W
HStem: -13.5732 156.54<335.826 467.405> 302.552 152.621<333.781 473.454> 536.495 208.472<325.838 561.519>
VStem: 30 274.82<206.922 484.195> 500.568 166.418<172.936 272.746>
LayerCount: 2
Fore
SplineSet
396.595703125 744.966796875 m 4
 572.949760346 744.966796875 655.734375 687.717773438 655.734375 687.717773438 c 5
 609.525390625 495.155273438 l 5
 609.525390625 495.155273438 535.926729311 536.495117188 426.087890625 536.495117188 c 4
 252.861328125 536.495117188 245.828125 409.92578125 245.828125 409.92578125 c 5
 245.828125 409.92578125 299.59375 455.172851562 400.6015625 455.172851562 c 4
 565.104315315 455.172851562 666.986328125 377.480303732 666.986328125 222.360351562 c 4
 666.986328125 85.5762354956 548.225001639 -13.5732421875 371.396484375 -13.5732421875 c 4
 182.60546875 -13.5732421875 30 100.656434771 30 356.131835938 c 4
 30 612.258558852 175.421875 744.966796875 396.595703125 744.966796875 c 4
304.8203125 223.84765625 m 4
 304.8203125 184.394532404 340.947569274 142.966796875 400.775390625 142.966796875 c 4
 466.687777895 142.966796875 500.568359375 184.19293014 500.568359375 223.631835938 c 4
 500.568359375 262.976520779 468.822402089 302.551757812 406.947265625 302.551757812 c 4
 339.149372916 302.551757812 304.8203125 263.180211449 304.8203125 223.84765625 c 4
EndSplineSet
EndChar

StartChar: seven
Encoding: 55 55 60
Width: 670
Flags: W
HStem: 489.433 249.466<42.4883 352.744>
LayerCount: 2
Fore
SplineSet
42.48828125 738.8984375 m 1
 607.359375 726.821289062 l 1
 645.6171875 521.17578125 l 1
 270.0625 -37.9853515625 l 1
 123.7265625 25.6083984375 l 1
 352.744140625 495.904296875 l 1
 30 489.432617188 l 1
 42.48828125 738.8984375 l 1
EndSplineSet
Validated: 1
EndChar

StartChar: eight
Encoding: 56 56 61
Width: 720
Flags: W
HStem: -14.7627 162.161<281.133 437.213> 309.329 129.791<282.389 365.922> 327.157 97.0469<168.855 536.576> 570.562 175.598<232.216 373.186>
VStem: 30 213.047<182.656 276.471> 55.748 154.082<464.11 547.048> 395.547 269.057<463.036 549.945> 474.502 215.852<182.645 277.446>
LayerCount: 2
Fore
SplineSet
55.748046875 533.6328125 m 0xb6
 55.748046875 668.590305932 183.775390625 746.16015625 362.24609375 746.16015625 c 0
 557.408203125 746.16015625 664.603515625 646.420469593 664.603515625 539.686523438 c 0
 664.603515625 404.727108916 536.576171875 327.157226562 358.10546875 327.157226562 c 0
 162.94140625 327.157226562 55.748046875 426.897888254 55.748046875 533.6328125 c 0xb6
209.830078125 505.758789062 m 0
 209.830078125 473.252078434 244.5234375 439.120117188 300.953125 439.120117188 c 0xd6
 365.921875 439.120117188 395.546875 473.084769043 395.546875 505.580078125 c 0
 395.546875 537.976500815 366.921875 570.5625 306.52734375 570.5625 c 0
 241.392578125 570.5625 209.830078125 538.1449933 209.830078125 505.758789062 c 0
30 211.556640625 m 4xb9
 30 346.590737324 168.85546875 424.204101562 362.419921875 424.204101562 c 0
 574.09375 424.204101562 690.353515625 324.538312348 690.353515625 217.885742188 c 4
 690.353515625 70.1503906248 551.494140625 -14.7626953125 357.9296875 -14.7626953125 c 0
 146.259765625 -14.7626953125 30 94.564453125 30 211.556640625 c 4xb9
243.046875 229.344726562 m 0
 243.046875 189.37109375 286.287109375 147.3984375 356.611328125 147.3984375 c 0
 432.921875 147.3984375 474.501953125 189.177734375 474.501953125 229.151367188 c 0
 474.501953125 269.124023438 437.921875 309.329101562 363.556640625 309.329101562 c 0xd9
 282.388671875 309.329101562 243.046875 269.317382812 243.046875 229.344726562 c 0
EndSplineSet
Validated: 5
EndChar

StartChar: nine
Encoding: 57 57 62
Width: 716
Flags: W
HStem: -13.5732 167.972<150.709 412.212> 234.719 181.023<231.776 434.969> 551.524 193.442<236.601 450.189>
VStem: 30 166.42<446.273 517.69> 492.195 194.789<300.125 515.785>
LayerCount: 2
Fore
SplineSet
320.390625 -13.5732421875 m 0
 173.4375 -13.5732421875 99.75 25.6748046875 99.75 25.6748046875 c 1
 132.46484375 182.239257812 l 1
 132.46484375 182.239257812 202.41796875 154.3984375 299.896484375 154.3984375 c 0
 507.212890625 154.3984375 516.16015625 311.467773438 516.16015625 311.467773438 c 1
 516.16015625 311.467773438 458.759765625 234.71875 316.384765625 234.71875 c 0
 139.53125 234.71875 30 340.733398438 30 496.034179688 c 0
 30 639.781925644 156.798828125 744.966796875 345.58984375 744.966796875 c 0
 534.380859375 744.966796875 686.984375 630.736147016 686.984375 375.258789062 c 0
 686.984375 119.13587571 541.5625 -13.5732421875 320.390625 -13.5732421875 c 0
492.1953125 482.813476562 m 4
 492.1953125 516.330078125 436.5234375 551.524414062 347.072265625 551.524414062 c 4
 247.58984375 551.524414062 196.419921875 516.490234375 196.419921875 482.973632812 c 4
 196.419921875 449.456054688 244.515625 415.7421875 338.19140625 415.7421875 c 4
 442.5234375 415.7421875 492.1953125 449.29296875 492.1953125 482.813476562 c 4
EndSplineSet
Validated: 1
EndChar

StartChar: period
Encoding: 46 46 63
Width: 313
Flags: W
HStem: -14.6885 252.489<84.692 229.25>
VStem: 30 253.94<39.6569 183.456>
LayerCount: 2
Fore
SplineSet
30 109.815429688 m 4
 30 191.088867188 86.92578125 237.80078125 157.794921875 237.80078125 c 4
 235.291015625 237.80078125 283.940429688 177.659179688 283.940429688 113.297851562 c 4
 283.940429688 32.025390625 227.018554688 -14.6884765625 156.1484375 -14.6884765625 c 4
 78.650390625 -14.6884765625 30 45.455078125 30 109.815429688 c 4
EndSplineSet
Validated: 1
EndChar

StartChar: comma
Encoding: 44 44 64
Width: 285
Flags: W
VStem: -30 305.257
LayerCount: 2
Fore
SplineSet
92.935546875 227.669921875 m 5
 275.256835938 118.352539062 l 5
 49.4462890625 -146.279296875 l 5
 -30 -103.510742188 l 5
 92.935546875 227.669921875 l 5
EndSplineSet
Validated: 1
EndChar

StartChar: exclam
Encoding: 33 33 65
Width: 325
Flags: W
HStem: -14.6885 212.914<80.5038 242.676> 713.77 20G<10 311.743>
VStem: 29.9307 263.319<31.1398 152.4>
LayerCount: 2
Fore
SplineSet
293.25 90.302734375 m 0
 293.25 36.029296875 242.803710938 -14.6884765625 162.443359375 -14.6884765625 c 0
 88.9560546875 -14.6884765625 29.9306640625 24.705078125 29.9306640625 93.23828125 c 0
 29.9306640625 147.51171875 80.3798828125 198.225585938 160.73828125 198.225585938 c 0
 234.22265625 198.225585938 293.25 158.8359375 293.25 90.302734375 c 0
87.646484375 245.8671875 m 5
 10 728.27734375 l 5
 315.108398438 733.76953125 l 5
 233.623046875 249.544921875 l 5
 87.646484375 245.8671875 l 5
EndSplineSet
EndChar

StartChar: question
Encoding: 63 63 66
Width: 545
Flags: W
HStem: -14.6885 212.914<104.224 266.398> 516.488 226.715<40.9613 292.781>
VStem: 53.6504 263.322<31.1398 152.4> 322.239 193.549<439.581 622.772>
LayerCount: 2
Fore
SplineSet
53.650390625 90.302734375 m 4
 53.650390625 158.8359375 112.676757812 198.225585938 186.163085938 198.225585938 c 4
 266.522460938 198.225585938 316.97265625 147.51171875 316.97265625 93.23828125 c 4
 316.97265625 24.705078125 257.9453125 -14.6884765625 184.45703125 -14.6884765625 c 4
 104.099609375 -14.6884765625 53.650390625 36.029296875 53.650390625 90.302734375 c 4
30 514.725585938 m 5
 51.896484375 742.796875 l 5
 51.896484375 742.796875 63.125 743.203125 89.8349609375 743.203125 c 4
 199.670442025 743.203125 515.788085938 721.909179688 515.788085938 523.635742188 c 4
 515.788085938 335.291015625 272.31640625 331.71875 272.31640625 331.71875 c 5
 249.998046875 241.296875 l 5
 122.633789062 248.25 l 5
 109.998046875 413.611328125 l 5
 109.998046875 413.611328125 119.130859375 413.302734375 133.694335938 413.302734375 c 4
 188.084969295 413.302734375 322.239257812 418.07421875 322.239257812 465.145507812 c 4
 322.239257812 509.885742188 189.699119951 516.48828125 103.047851562 516.48828125 c 4
 54.3476562502 516.48828125 30 514.725585938 30 514.725585938 c 5
EndSplineSet
Validated: 1
EndChar

StartChar: colon
Encoding: 58 58 67
Width: 313
Flags: W
HStem: -14.6885 252.489<84.6923 229.248> 298.512 231.961<98.5816 236.005>
VStem: 30 253.941<39.6569 183.456> 50.6465 233.295<346.194 482.789>
LayerCount: 2
Fore
SplineSet
30 109.815429688 m 4xe0
 30 191.088867188 86.921875 237.80078125 157.790039062 237.80078125 c 4
 235.2890625 237.80078125 283.94140625 177.659179688 283.94140625 113.297851562 c 4
 283.94140625 32.025390625 227.017578125 -14.6884765625 156.149414062 -14.6884765625 c 4
 78.650390625 -14.6884765625 30 45.455078125 30 109.815429688 c 4xe0
50.646484375 412.891601562 m 4xd0
 50.646484375 487.557617188 102.94140625 530.47265625 168.048828125 530.47265625 c 4
 239.244140625 530.47265625 283.94140625 475.216796875 283.94140625 416.08984375 c 4
 283.94140625 341.424804688 230.73828125 298.51171875 166.5390625 298.51171875 c 4
 95.3408203125 298.51171875 50.646484375 353.764648438 50.646484375 412.891601562 c 4xd0
EndSplineSet
Validated: 1
EndChar

StartChar: semicolon
Encoding: 59 59 68
Width: 277
Flags: W
HStem: 282.965 252.488<68.5855 213.142>
VStem: 13.8936 253.939<337.311 481.109>
LayerCount: 2
Fore
SplineSet
87.283203125 242.84375 m 5
 255.314453125 154.549804688 l 5
 42.9736328125 -122.6484375 l 5
 -30 -88.51171875 l 5
 87.283203125 242.84375 l 5
13.8935546875 407.470703125 m 4
 13.8935546875 488.7421875 70.8173828125 535.453125 141.685546875 535.453125 c 4
 219.18359375 535.453125 267.833007812 475.311523438 267.833007812 410.950195312 c 4
 267.833007812 329.678710938 210.91015625 282.96484375 140.040039062 282.96484375 c 4
 62.544921875 282.96484375 13.8935546875 343.109375 13.8935546875 407.470703125 c 4
EndSplineSet
Validated: 1
EndChar

StartChar: ampersand
Encoding: 38 38 69
Width: 775
Flags: W
HStem: -9.6084 130.659<261.364 450.569> 274.321 64.4316<458.377 545.848> 528.687 208.787<310.341 554.226>
VStem: 30 205.33<144.99 245.234> 64.2832 230.164<447.747 613.885> 458.377 178.273<139.33 338.753>
LayerCount: 2
Fore
SplineSet
592.509765625 506.286132812 m 1xec
 592.509765625 506.286132812 518.388671875 528.686523438 423.6328125 528.686523438 c 0
 327.573049139 528.686523438 294.447265625 512.470777342 294.447265625 476.859375 c 0xec
 294.447265625 424.305778672 367.756697905 412.389648438 478.330078125 412.389648438 c 0
 635.172570298 412.389648438 755.58984375 421.17578125 755.58984375 421.17578125 c 1
 752.287109375 255.875976562 l 5
 752.287109375 255.875976562 545.847774624 274.321289062 357.60546875 274.321289062 c 0
 282.810546875 274.321289062 235.330078125 253.278320312 235.330078125 191.395507812 c 0
 235.330078125 132.970558492 295.99609375 121.05078125 377.17578125 121.05078125 c 0
 417.770420346 121.05078125 452.548828125 128.287109375 452.548828125 128.287109375 c 1
 458.376953125 338.752929688 l 1
 636.650390625 338.752929688 l 1
 625.224609375 13.244140625 l 1
 625.224609375 13.244140625 533.483387267 -9.6083984375 359.47265625 -9.6083984375 c 0
 178.916015625 -9.6083984375 30 53.5544945378 30 186.198242188 c 0xf4
 30 325.61328125 193.82421875 359.13671875 193.82421875 359.13671875 c 1
 193.82421875 359.13671875 64.283203125 399.217773438 64.283203125 532.680664062 c 0
 64.283203125 695.090310318 214.929982924 737.473632812 371.40234375 737.473632812 c 0
 528.568309946 737.473632812 627.1953125 691.575195312 627.1953125 691.575195312 c 1
 592.509765625 506.286132812 l 1xec
EndSplineSet
Validated: 5
EndChar

StartChar: dollar
Encoding: 36 36 70
Width: 666
Flags: W
HStem: 31.8076 187.439<172.436 359.762> 528.859 170.729<305.14 424.361>
VStem: 219.166 82.7285<15.699 93.8301> 361.262 74.2129<66.278 92.6123> 368.074 111.93<777.489 834.174> 389.568 246.658<160.326 297.994>
LayerCount: 2
Fore
SplineSet
336.232421875 699.588867188 m 0xe4
 526.19921875 699.588867188 633.375 638.215820312 633.375 638.215820312 c 1
 588.5625 460.2421875 l 1
 588.5625 460.2421875 505.080078125 528.859375 344.57421875 528.859375 c 0
 281.970703125 528.859375 264.89453125 510.474609375 264.89453125 486.065429688 c 0
 264.89453125 394.485351562 636.2265625 425.51953125 636.2265625 227.259765625 c 0
 636.2265625 93.392578125 501.67578125 31.8076171875 316.13671875 31.8076171875 c 0
 117.77734375 31.8076171875 20 97.6533203125 20 97.6533203125 c 1
 81.48046875 293.072265625 l 1
 81.48046875 293.072265625 159.431640625 219.247070312 295.708984375 219.247070312 c 0
 352.728515625 219.247070312 389.568359375 231.01953125 389.568359375 265.853515625 c 0
 389.568359375 358.182617188 51.509765625 312.92578125 51.509765625 514.323242188 c 0
 51.509765625 607.001953125 132.263671875 699.588867188 336.232421875 699.588867188 c 0xe4
203.833984375 841.145507812 m 5
 303.59375 846.381835938 l 5
 301.1640625 638.455078125 l 5
 223.30078125 643.32421875 l 5
 203.833984375 841.145507812 l 5
368.07421875 850.030273438 m 5xe8
 480.00390625 833.116210938 l 5
 456.88671875 649.408203125 l 5
 359.560546875 657.921875 l 5
 368.07421875 850.030273438 l 5xe8
219.166015625 98.6953125 m 5
 301.89453125 93.830078125 l 5
 309.193359375 -109.345703125 l 5
 202.1328125 -103.260742188 l 5
 219.166015625 98.6953125 l 5
361.26171875 92.6123046875 m 5xf0
 435.474609375 104.780273438 l 5
 474.404296875 -109.345703125 l 5
 361.26171875 -114.212890625 l 5
 361.26171875 92.6123046875 l 5xf0
EndSplineSet
Validated: 5
EndChar

StartChar: sterling
Encoding: 163 163 71
Width: 609
Flags: W
HStem: -5.94531 242.367<230.75 572.664> 3.46387 237.373<230.75 433.358> 304.627 159.351<120.756 452.432> 309.128 145.853<26.1309 357.806> 730.251 20G<290.565 451.192>
LayerCount: 2
Fore
SplineSet
579.064453125 -5.9453125 m 5x88
 10 3.4638671875 l 5
 57.349609375 399.838795531 138.111328125 693.374934661 443.01953125 750.250976562 c 5
 510.03515625 586.23828125 l 5
 327.607421875 553.328514624 263.2890625 460.664748223 230.75 240.836914062 c 5x48
 572.6640625 236.421875 l 5
 579.064453125 -5.9453125 l 5x88
26.130859375 454.98046875 m 5x18
 452.431640625 463.977539062 l 5
 461.431640625 304.626953125 l 5x28
 17.1328125 309.127929688 l 5
 26.130859375 454.98046875 l 5x18
EndSplineSet
Validated: 5
EndChar

StartChar: Euro
Encoding: 8364 8364 72
Width: 761
Flags: W
HStem: -13.6494 232.611<370.097 630.16> 251.699 96.6045<33.4492 303.521> 263.466 84.4277<217.352 487.424> 379.02 95.5498<39.5918 349.489> 385.751 78.1045<204.009 499.848> 514.923 225.946<370.666 635.303>
LayerCount: 2
Fore
SplineSet
486.40234375 740.869140625 m 0x84
 674.033203125 740.869140625 741.140625 664.983398438 741.140625 664.983398438 c 1
 689.87890625 475.263671875 l 1
 689.87890625 475.263671875 601.205078125 514.922851562 473.55859375 514.922851562 c 0
 358.406941899 514.922851562 289.2109375 453.568359375 289.2109375 369.947265625 c 0
 289.2109375 286.323242188 347.01672567 218.961914062 475.85546875 218.961914062 c 0
 608.900390625 218.961914062 695.1015625 264.2578125 695.1015625 264.2578125 c 1
 744.150390625 52.0810546875 l 1
 744.150390625 52.0810546875 637.26953125 -13.6494140625 463.15234375 -13.6494140625 c 0
 201.462715222 -13.6494140625 103.408203125 171.807012304 103.408203125 365.51171875 c 0
 103.408203125 603.869977064 276.295590445 740.869140625 486.40234375 740.869140625 c 0x84
513.90625 463.85546875 m 1x8c
 499.84765625 385.750976562 l 1x8c
 30 379.01953125 l 1
 39.591796875 474.569335938 l 1x94
 513.90625 463.85546875 l 1x8c
487.423828125 263.465820312 m 1xa4
 33.44921875 251.69921875 l 1
 30 348.303710938 l 1xc4
 501.076171875 347.893554688 l 1
 487.423828125 263.465820312 l 1xa4
EndSplineSet
EndChar

StartChar: yen
Encoding: 165 165 73
Width: 760
Flags: W
HStem: 133.947 95.2617<135.68 662.275> 274.59 104.261<306.758 669.896> 281.521 86.8652<127.062 490.201> 725.825 20G<598.45 640.429>
LayerCount: 2
Fore
SplineSet
669.896484375 378.850585938 m 1xd0
 677.806640625 274.58984375 l 1xd0
 120.146484375 281.521484375 l 1
 127.0625 368.38671875 l 1xb0
 669.896484375 378.850585938 l 1xd0
227.3046875 762.125 m 1
 421.392578125 504.948242188 l 1
 614.482421875 745.825195312 l 1
 750.140625 641.2578125 l 1
 490.689453125 325.262695312 l 1
 518.775390625 1.01953125 l 5
 265.234375 -3.4404296875 l 5
 289.642578125 333.172851562 l 1
 10 600.549804688 l 1
 227.3046875 762.125 l 1
669.896484375 229.208984375 m 1
 662.275390625 133.947265625 l 1
 135.6796875 131.879882812 l 1
 127.0625 232.245117188 l 1
 669.896484375 229.208984375 l 1
EndSplineSet
Validated: 5
EndChar

StartChar: percent
Encoding: 37 37 74
Width: 852
Flags: W
HStem: -10.1504 124.522<579.669 675.039> 244.645 101.402<581.384 674.563> 375.112 96.8994<153.183 294.668> 586.468 144.836<158.456 296.574> 726.315 20G<543.62 593.748>
VStem: 30 165.621<484.372 573.442> 307.196 81.0469<483.498 576.79> 464.638 99.0449<130.041 229.255> 690.677 132.202<129.434 228.79>
LayerCount: 2
Fore
SplineSet
30 550.752929688 m 4xf780
 30 665.40625 110.3046875 731.303710938 210.279296875 731.303710938 c 4
 319.610351562 731.303710938 388.243164062 646.458007812 388.243164062 555.662109375 c 4
 388.243164062 441.009765625 307.938476562 375.112304688 207.958984375 375.112304688 c 4
 98.6328125 375.112304688 30 459.958007812 30 550.752929688 c 4xf780
195.62109375 529.932617188 m 4
 195.62109375 501.6796875 216.458984375 472.01171875 250.366210938 472.01171875 c 4
 287.45703125 472.01171875 307.196289062 501.541992188 307.196289062 529.796875 c 4
 307.196289062 558.048828125 289.45703125 586.467773438 253.712890625 586.467773438 c 4
 214.57421875 586.467773438 195.62109375 558.184570312 195.62109375 529.932617188 c 4
822.87890625 170.405273438 m 0
 822.87890625 55.7509765625 742.573242188 -10.150390625 642.598632812 -10.150390625 c 0
 533.271484375 -10.150390625 464.637695312 74.697265625 464.637695312 165.491210938 c 0
 464.637695312 280.145507812 544.94140625 346.046875 644.918945312 346.046875 c 0
 754.245117188 346.046875 822.87890625 261.201171875 822.87890625 170.405273438 c 0
690.676757812 178.717773438 m 0
 690.676757812 210.875976562 668.45703125 244.64453125 628.366210938 244.64453125 c 0
 585.63671875 244.64453125 563.682617188 211.03125 563.682617188 178.873046875 c 0
 563.682617188 146.716796875 584.319335938 114.372070312 624.556640625 114.372070312 c 0
 669.45703125 114.372070312 690.676757812 146.561523438 690.676757812 178.717773438 c 0
EndSplineSet
Refer: 76 8260 N 1 0 0 1 327 0 2
Validated: 1
EndChar

StartChar: perthousand
Encoding: 8240 8240 75
Width: 1167
Flags: W
HStem: -10.1504 121.046<890.346 985.551> -10.1504 104.694<622.732 713.455> 212.337 133.71<625.434 712.169> 241.168 104.879<892.13 984.914> 375.112 110.277<185.645 274.692> 607.409 123.895<182.871 276.055> 726.315 20G<543.62 593.748>
VStem: 30 139.554<499.828 592.967> 288.503 99.7402<499.864 594.815> 464.636 146.837<106.459 198.376> 779.18 43.6973<74.6973 261.201> 1001.75 135.676<127.696 225.066>
LayerCount: 2
Fore
SplineSet
30 550.752929688 m 0x0df0
 30 665.40625 110.303710938 731.303710938 210.282226562 731.303710938 c 0
 319.609375 731.303710938 388.243164062 646.458007812 388.243164062 555.662109375 c 0
 388.243164062 441.009765625 307.939453125 375.112304688 207.9609375 375.112304688 c 0
 98.6337890625 375.112304688 30 459.958007812 30 550.752929688 c 0x0df0
169.553710938 547.138671875 m 0
 169.553710938 517.020507812 191.767578125 485.389648438 227.916015625 485.389648438 c 0
 268.1875 485.389648438 288.502929688 516.873046875 288.502929688 546.994140625 c 0
 288.502929688 577.114257812 270.1875 607.409179688 231.487304688 607.409179688 c 0
 189.76171875 607.409179688 169.553710938 577.258789062 169.553710938 547.138671875 c 0
822.876953125 170.405273438 m 0
 822.876953125 55.7509765625 742.57421875 -10.150390625 642.599609375 -10.150390625 c 0
 533.26953125 -10.150390625 464.635742188 74.697265625 464.635742188 165.491210938 c 0
 464.635742188 280.145507812 544.940429688 346.046875 644.920898438 346.046875 c 0x69f0
 754.24609375 346.046875 822.876953125 261.201171875 822.876953125 170.405273438 c 0
726.302734375 152.727539062 m 0
 726.302734375 181.805664062 707.1875 212.336914062 669.961914062 212.336914062 c 0
 631.325195312 212.336914062 611.47265625 181.944335938 611.47265625 152.868164062 c 0
 611.47265625 123.791992188 630.133789062 94.5439453125 666.516601562 94.5439453125 c 0
 706.1875 94.5439453125 726.302734375 123.651367188 726.302734375 152.727539062 c 0
1137.42285156 170.405273438 m 0
 1137.42285156 55.7509765625 1057.12011719 -10.150390625 957.14453125 -10.150390625 c 0
 847.814453125 -10.150390625 779.1796875 74.697265625 779.1796875 165.491210938 c 0
 779.1796875 280.145507812 859.483398438 346.046875 959.463867188 346.046875 c 0x99f0
 1068.79101562 346.046875 1137.42285156 261.201171875 1137.42285156 170.405273438 c 0
1001.74707031 175.24609375 m 0
 1001.74707031 207.403320312 979.1875 241.16796875 939.435546875 241.16796875 c 0
 896.708007812 241.16796875 874.754882812 207.555664062 874.754882812 175.3984375 c 0
 874.754882812 143.241210938 895.390625 110.895507812 935.625976562 110.895507812 c 0
 980.1875 110.895507812 1001.74707031 143.0859375 1001.74707031 175.24609375 c 0
EndSplineSet
Refer: 76 8260 S 1 0 0 1 327 0 2
Validated: 5
EndChar

StartChar: fraction
Encoding: 8260 8260 76
Width: 168
Flags: W
HStem: 726.315 20G<216.62 266.748>
LayerCount: 2
Fore
SplineSet
226.936523438 746.315429688 m 5
 360.125 679.405273438 l 5
 -59.3427734375 -46.2216796875 l 5
 -155.642578125 4.626953125 l 5
 226.936523438 746.315429688 l 5
EndSplineSet
Validated: 1
EndChar

StartChar: less
Encoding: 60 60 77
Width: 500
Flags: W
LayerCount: 2
Fore
SplineSet
402.608398438 562.78125 m 5
 444.493164062 479.14453125 l 5
 236.606445312 352.305664062 l 5
 441.927734375 225.888671875 l 5
 389.830078125 143.6953125 l 5
 61.1630859375 286.668945312 l 5
 55.5068359375 405.291992188 l 5
 402.608398438 562.78125 l 5
EndSplineSet
Validated: 1
EndChar

StartChar: greater
Encoding: 62 62 78
Width: 500
Flags: W
LayerCount: 2
Fore
SplineSet
102.685546875 143.6953125 m 1
 55.8701171875 227.333007812 l 1
 258.005859375 354.168945312 l 1
 58.435546875 480.587890625 l 1
 115.461914062 562.78125 l 1
 444.129882812 414.469726562 l 1
 439.100585938 290.497070312 l 1
 102.685546875 143.6953125 l 1
EndSplineSet
Validated: 1
EndChar

StartChar: minus
Encoding: 8722 8722 79
Width: 500
Flags: W
HStem: 285.771 146.988<149.031 462.958> 291.499 131.718<34.9873 348.914>
LayerCount: 2
Fore
SplineSet
34.9873046875 423.216796875 m 5x40
 462.958007812 432.759765625 l 5
 471.186523438 285.771484375 l 5x80
 28.8134765625 291.499023438 l 5
 34.9873046875 423.216796875 l 5x40
EndSplineSet
Validated: 1
EndChar

StartChar: plus
Encoding: 43 43 80
Width: 500
Flags: W
HStem: 297.3 128.504<37.043 465.014>
VStem: 178.028 146.989<146.427 460.355> 187.571 131.717<260.471 574.399>
LayerCount: 2
Fore
SplineSet
465.013671875 297.299804688 m 5x80
 37.04296875 294.6015625 l 5
 28.814453125 419.90625 l 5
 471.185546875 425.803710938 l 5
 465.013671875 297.299804688 l 5x80
187.571289062 574.399414062 m 1xa0
 319.288085938 580.569335938 l 1xa0
 325.017578125 138.198242188 l 1
 178.028320312 146.426757812 l 1xc0
 187.571289062 574.399414062 l 1xa0
EndSplineSet
Validated: 5
EndChar

StartChar: divide
Encoding: 247 247 81
Width: 500
Flags: W
HStem: 98.333 170.532<186.132 301.248> 285.771 146.988<149.19 462.959> 295.319 131.717<34.9844 348.754> 448.729 156.671<188.224 298.358>
VStem: 157.932 171.518<125.554 241.644> 164.506 157.568<472.38 581.748>
LayerCount: 2
Fore
SplineSet
157.931640625 182.422851562 m 0x98
 157.931640625 237.317382812 196.37890625 268.865234375 244.244140625 268.865234375 c 0
 296.587890625 268.865234375 329.44921875 228.244140625 329.44921875 184.7734375 c 0
 329.44921875 129.8828125 291 98.3330078125 243.1328125 98.3330078125 c 0
 190.791015625 98.3330078125 157.931640625 138.953125 157.931640625 182.422851562 c 0x98
164.505859375 525.982421875 m 0x94
 164.505859375 576.413085938 199.826171875 605.399414062 243.80078125 605.399414062 c 0
 291.88671875 605.399414062 322.07421875 568.080078125 322.07421875 528.143554688 c 0
 322.07421875 477.71484375 286.75390625 448.728515625 242.78125 448.728515625 c 0
 194.6953125 448.728515625 164.505859375 486.046875 164.505859375 525.982421875 c 0x94
34.984375 295.319335938 m 1xb0
 28.8125 427.036132812 l 1xb0
 471.1875 432.759765625 l 1
 462.958984375 285.771484375 l 1xd0
 34.984375 295.319335938 l 1xb0
EndSplineSet
Validated: 1
EndChar

StartChar: multiply
Encoding: 215 215 82
Width: 500
Flags: W
LayerCount: 2
Fore
SplineSet
476.3984375 233.552734375 m 1
 379.244140625 131.090820312 l 1
 210.154296875 318.083984375 l 1
 23.6015625 491.6015625 l 1
 129.654296875 580.081054688 l 1
 293.4921875 400.081054688 l 1
 476.3984375 233.552734375 l 1
23.6015625 233.552734375 m 1
 206.5078125 400.081054688 l 1
 370.349609375 580.081054688 l 1
 476.3984375 491.6015625 l 1
 289.84375 318.083984375 l 1
 120.759765625 131.090820312 l 1
 23.6015625 233.552734375 l 1
EndSplineSet
Validated: 5
EndChar

StartChar: equal
Encoding: 61 61 83
Width: 500
Flags: W
HStem: 201.987 123.879<37.6133 291.962> 210.323 127.053<201.478 455.827> 382.781 122.554<39.6719 395.314> 385.29 128.383<104.686 462.385>
LayerCount: 2
Fore
SplineSet
36.013671875 505.334960938 m 5x20
 463.986328125 513.672851562 l 5
 462.384765625 385.290039062 l 5x10
 39.671875 382.78125 l 5
 36.013671875 505.334960938 l 5x20
463.986328125 210.323242188 m 5x40
 36.013671875 201.987304688 l 5
 37.61328125 325.866210938 l 5x80
 455.827148438 337.375976562 l 5
 463.986328125 210.323242188 l 5x40
EndSplineSet
Validated: 1
EndChar

StartChar: numbersign
Encoding: 35 35 84
Width: 784
Flags: W
HStem: 141.168 131.688<40.625 233.783> 165.355 94.0625<530.36 734.143> 391.103 123.628<492.22 749.271> 404.541 91.376<58.4102 315.461> 724.912 20G<528.132 641.615>
LayerCount: 2
Fore
SplineSet
241.314453125 757.69140625 m 5x08
 391.688476562 735.387695312 l 5
 233.086914062 -42.5830078125 l 5
 123.53125 -24.21484375 l 5
 241.314453125 757.69140625 l 5x08
543.31640625 -48.455078125 m 5
 409.919921875 -30.490234375 l 5
 531.26171875 744.912109375 l 5
 641.615234375 726.43359375 l 5
 543.31640625 -48.455078125 l 5
58.41015625 495.916992188 m 5x18
 749.270507812 514.73046875 l 5
 754.586914062 391.102539062 l 5x28
 53.099609375 404.541015625 l 5
 58.41015625 495.916992188 l 5x18
40.625 272.856445312 m 5x88
 736.795898438 259.41796875 l 5
 734.142578125 165.35546875 l 5x48
 30 141.16796875 l 5
 40.625 272.856445312 l 5x88
EndSplineSet
Validated: 5
EndChar

StartChar: slash
Encoding: 47 47 85
Width: 418
Flags: W
LayerCount: 2
Fore
SplineSet
275.961914062 809.576171875 m 1
 408.234375 768.875976562 l 1
 105.58203125 -103.197265625 l 1
 10 -71.2939453125 l 1
 275.961914062 809.576171875 l 1
EndSplineSet
Validated: 1
EndChar

StartChar: backslash
Encoding: 92 92 86
Width: 418
Flags: W
LayerCount: 2
Fore
SplineSet
142.26953125 809.576171875 m 1
 408.235351562 -71.2939453125 l 1
 312.653320312 -103.197265625 l 1
 10 768.875976562 l 1
 142.26953125 809.576171875 l 1
EndSplineSet
Validated: 1
EndChar

StartChar: bar
Encoding: 124 124 87
Width: 158
Flags: W
VStem: 10 138.384<535.226 808.312> 32.999 100.759<-90.9277 182.311>
LayerCount: 2
Fore
SplineSet
148.383789062 808.3125 m 5x80
 133.7578125 -90.927734375 l 5
 32.9990234375 -92.2080078125 l 5x40
 10 809.745117188 l 5
 148.383789062 808.3125 l 5x80
EndSplineSet
Validated: 1
EndChar

StartChar: parenleft
Encoding: 40 40 88
Width: 292
Flags: W
VStem: 30 121.774<189.738 499.176>
LayerCount: 2
Fore
SplineSet
173.297851562 809.994140625 m 1
 282.145507812 744.016601562 l 1
 282.145507812 744.016601562 151.774414062 567.15625 151.774414062 335.396484375 c 0
 151.774414062 146.397460938 265.177734375 -49.109375 265.177734375 -49.109375 c 1
 176.731445312 -100.5546875 l 1
 176.731445312 -100.5546875 30 97.7060546875 30 369.857421875 c 0
 30 644 173.297851562 809.994140625 173.297851562 809.994140625 c 1
EndSplineSet
Validated: 1
EndChar

StartChar: parenright
Encoding: 41 41 89
Width: 292
Flags: W
VStem: 140.37 121.776<205.646 514.832>
LayerCount: 2
Fore
SplineSet
118.845703125 -105.426757812 m 5
 10 -39.4482421875 l 5
 10 -39.4482421875 140.370117188 137.41015625 140.370117188 369.173828125 c 4
 140.370117188 558.170898438 26.96484375 753.677734375 26.96484375 753.677734375 c 5
 115.415039062 805.123046875 l 5
 115.415039062 805.123046875 262.146484375 606.865234375 262.146484375 334.7109375 c 4
 262.146484375 62 118.845703125 -105.426757812 118.845703125 -105.426757812 c 5
EndSplineSet
Validated: 1
EndChar

StartChar: bracketleft
Encoding: 91 91 90
Width: 352
Flags: W
HStem: -82.377 100.213<153.867 219.875> -71.0801 88.0576<155.305 322.046> 700.585 88.0645<243.959 299.388>
VStem: 30 134.489<527.445 683.549> 52.665 101.202<17.8359 190.125>
LayerCount: 2
Fore
SplineSet
30 799.947265625 m 1xb0
 299.856445312 788.649414062 l 1
 299.387695312 700.584960938 l 1
 164.489257812 683.548828125 l 1xb0
 153.8671875 17.8359375 l 1xa8
 322.045898438 16.9775390625 l 1
 322.515625 -71.080078125 l 1x68
 52.6650390625 -82.376953125 l 1xa8
 30 799.947265625 l 1xb0
EndSplineSet
Validated: 1
EndChar

StartChar: bracketright
Encoding: 93 93 91
Width: 352
Flags: W
HStem: -69.8066 88.0596<53.126 108.532> 701.004 100.217<132.71 198.647> 701.863 88.0557<30.4678 197.134>
VStem: 188.024 134.488<35.2959 191.363> 198.647 101.197<528.754 701.004>
LayerCount: 2
Fore
SplineSet
322.512695312 -81.1044921875 m 1xd0
 52.6572265625 -69.806640625 l 1
 53.1259765625 18.2529296875 l 1
 188.024414062 35.2958984375 l 1xd0
 198.647460938 701.00390625 l 1xc8
 30.4677734375 701.86328125 l 1
 30 789.918945312 l 1xa8
 299.844726562 801.220703125 l 1xc8
 322.512695312 -81.1044921875 l 1xd0
EndSplineSet
Validated: 1
EndChar

StartChar: braceleft
Encoding: 123 123 92
Width: 469
Flags: W
HStem: -88.3076 86.498<220.525 409.224> 692.304 118.781<237.93 401.756>
VStem: 86.1914 123.281<540.645 663.64> 90.1826 110.855<17.7958 141.674> 148.259 107.202<192.771 290.597 407.507 502.598>
LayerCount: 2
Fore
SplineSet
419.392578125 665.654296875 m 1xe0
 419.392578125 665.654296875 375.434570312 692.303710938 317.783203125 692.303710938 c 0
 260.12890625 692.303710938 209.47265625 679.216796875 209.47265625 589.446289062 c 0xe0
 209.47265625 536.317382812 258.517578125 469.053710938 258.517578125 410.225585938 c 0
 258.517578125 362.501953125 208.337890625 328.233398438 208.337890625 328.233398438 c 1
 208.337890625 328.233398438 255.4609375 301.560546875 255.4609375 242.01953125 c 0xc8
 255.4609375 178.944335938 201.038085938 132.955078125 201.038085938 58.1484375 c 0
 201.038085938 23.548828125 230.490234375 -1.8095703125 304.287109375 -1.8095703125 c 0
 378.083984375 -1.8095703125 422.018554688 26.642578125 422.018554688 26.642578125 c 1
 442.422851562 -57.5478515625 l 1
 442.422851562 -57.5478515625 384.341796875 -88.3076171875 292.096679688 -88.3076171875 c 0
 166.412109375 -88.3076171875 90.1826171875 -22.607421875 90.1826171875 65.05078125 c 0xd0
 90.1826171875 153.268554688 148.258789062 209.5 148.258789062 259.301757812 c 0xc8
 148.258789062 310.828125 31.6845703125 313.930664062 31.6845703125 313.930664062 c 1
 30 386.538085938 l 1
 30 386.538085938 150.87890625 387.872070312 150.87890625 440.122070312 c 0
 150.87890625 502.676757812 86.19140625 527.10546875 86.19140625 635.009765625 c 0
 86.19140625 741.438476562 183.578125 811.084960938 291.966796875 811.084960938 c 0
 400.354492188 811.084960938 449.538085938 759.56640625 449.538085938 759.56640625 c 1
 419.392578125 665.654296875 l 1xe0
EndSplineSet
Validated: 1
EndChar

StartChar: braceright
Encoding: 125 125 93
Width: 469
Flags: W
HStem: -88.3076 118.783<67.7828 231.609> 724.589 86.4961<60.3169 249.015>
VStem: 211.021 107.641<229.294 314.613 432.876 524.572> 260.066 123.282<59.14 182.135> 268.505 110.853<581.105 704.982>
LayerCount: 2
Fore
SplineSet
50.1474609375 57.123046875 m 1xd0
 50.1474609375 57.123046875 94.103515625 30.4755859375 151.754882812 30.4755859375 c 0
 209.41015625 30.4755859375 260.06640625 43.5625 260.06640625 133.3359375 c 0xd0
 260.06640625 186.463867188 211.020507812 253.727539062 211.020507812 312.552734375 c 0xe0
 211.020507812 360.27734375 261.202148438 394.547851562 261.202148438 394.547851562 c 1
 261.202148438 394.547851562 214.079101562 421.219726562 214.079101562 480.760742188 c 0
 214.079101562 543.834960938 268.504882812 589.822265625 268.504882812 664.629882812 c 0
 268.504882812 699.23046875 239.049804688 724.588867188 165.251953125 724.588867188 c 0
 91.45703125 724.588867188 47.5224609375 696.137695312 47.5224609375 696.137695312 c 1
 27.119140625 780.329101562 l 1
 27.119140625 780.329101562 85.19921875 811.084960938 177.442382812 811.084960938 c 0
 303.127929688 811.084960938 379.357421875 745.383789062 379.357421875 657.725585938 c 0xc8
 379.357421875 569.509765625 321.283203125 513.279296875 321.283203125 463.478515625 c 0
 321.283203125 411.950195312 437.85546875 408.84765625 437.85546875 408.84765625 c 1
 439.538085938 336.2421875 l 1
 439.538085938 336.2421875 318.661132812 334.908203125 318.661132812 282.657226562 c 0xe0
 318.661132812 220.103515625 383.348632812 195.671875 383.348632812 87.7705078125 c 0
 383.348632812 -18.66015625 285.9609375 -88.3076171875 177.572265625 -88.3076171875 c 0
 69.1845703125 -88.3076171875 20 -36.787109375 20 -36.787109375 c 1
 50.1474609375 57.123046875 l 1xd0
EndSplineSet
Validated: 1
EndChar

StartChar: at
Encoding: 64 64 94
Width: 859
Flags: W
HStem: -74.2285 92.0957<333.349 636.096> 133.881 84.9854<647.113 725.936> 135.604 96.7891<419.827 523.689> 318.096 69.4072<367.112 522.66> 439.175 122.639<320.743 503.575> 655.199 100.225<313.497 574.748>
VStem: 30 100.221<221.718 480.182> 267.979 142.829<243.257 309.52> 748.451 81.4043<239.224 476.553>
LayerCount: 2
Fore
SplineSet
270.694335938 529.891601562 m 5xdf80
 270.694335938 529.891601562 328.8125 561.813476562 418.19921875 561.813476562 c 4
 545.733398438 561.813476562 614.486328125 492.8671875 621.374023438 363.450195312 c 4
 625.478515625 286.327148438 635.53499411 218.866210938 682.96875 218.866210938 c 4
 735 218.866210938 748.451171875 269.436523438 748.451171875 345.598632812 c 0
 748.451171875 542.529296875 635.880859375 655.19921875 456.529296875 655.19921875 c 0
 239.833984375 655.19921875 130.220703125 539.686523438 130.220703125 352.787109375 c 0
 130.220703125 125.254882812 272.928710938 17.8671875 473.267578125 17.8671875 c 0
 600.575195312 17.8671875 699.005859375 56.82421875 699.005859375 56.82421875 c 1
 722.465820312 -19.0185546875 l 1
 722.465820312 -19.0185546875 642.248046875 -74.228515625 443.15625 -74.228515625 c 0
 189.947265625 -74.228515625 30 109.00390625 30 352.787109375 c 0
 30 599.279296875 213.231445312 755.423828125 448.885742188 755.423828125 c 0
 711.630859375 755.423828125 829.85546875 558.34375 829.85546875 354.0390625 c 0
 829.85546875 231.741210938 778.963867188 133.880859375 667.907226562 133.880859375 c 4
 556.850585938 133.880859375 542.884765625 246.748046875 539.657226562 334.854492188 c 4
 536.849609375 411.498046875 492.579101562 439.174804688 422.36328125 439.174804688 c 4
 351.497070312 439.174804688 306.560546875 409.969726562 306.560546875 409.969726562 c 5
 270.694335938 529.891601562 l 5xdf80
565.501953125 332.663085938 m 5
 553.7734375 302.186523438 l 5
 553.7734375 302.186523438 524.294921875 318.095703125 482.213867188 318.095703125 c 4
 431.723632812 318.095703125 410.807617188 302.970703125 410.807617188 275.657226562 c 4
 410.807617188 248.341796875 438.498046875 232.393554688 480.7109375 232.393554688 c 4
 530.297851562 232.393554688 559.989257812 269.708007812 559.989257812 269.708007812 c 5
 588.388671875 206.852539062 l 5
 588.388671875 206.852539062 537.268554688 135.604492188 425.639648438 135.604492188 c 4xbf80
 329.009765625 135.604492188 267.978515625 196.811523438 267.978515625 266.603515625 c 4
 267.978515625 336.39453125 317.659179688 387.502929688 420.399414062 387.502929688 c 4
 528.875 387.502929688 565.501953125 332.663085938 565.501953125 332.663085938 c 5
EndSplineSet
EndChar

StartChar: quotesingle
Encoding: 39 39 95
Width: 232
Flags: W
HStem: 720.048 20G<13.7354 222.584>
VStem: 74.8564 90.1299<396.964 430.272>
LayerCount: 2
Fore
SplineSet
10 740.047851562 m 1
 222.583984375 740.0390625 l 1
 164.986328125 396.963867188 l 1
 74.8564453125 392.79296875 l 1
 10 740.047851562 l 1
EndSplineSet
Validated: 1
EndChar

StartChar: quotedbl
Encoding: 34 34 96
Width: 476
Flags: W
HStem: 729.04 20G<10 220.469 255.852 466.92>
LayerCount: 2
Fore
SplineSet
10 731.046875 m 5
 222.583984375 749.040039062 l 5
 185.826171875 401.463867188 l 5
 95.9501953125 397.294921875 l 5
 10 731.046875 l 5
466.919921875 731.046875 m 5
 370.421875 397.294921875 l 5
 280.671875 401.463867188 l 5
 254.336914062 749.040039062 l 5
 466.919921875 731.046875 l 5
EndSplineSet
Validated: 1
EndChar

StartChar: O_O
Encoding: 65537 -1 97
Width: 1670
Flags: W
HStem: -14.6885 270.172<298.337 550.307> -14.6885 211.609<1134.14 1281.78> 513.509 232.573<1131.28 1287.01> 548.887 197.195<311.139 551.359>
VStem: 35 317.072<324.655 480.877> 624.704 175.558<324.162 486.702> 870 189.336<277.554 438.931> 1353.52 281.745<272.929 443.343>
LayerCount: 2
Fore
SplineSet
352.072265625 403.961914062 m 4x9f
 352.072265625 331.533203125 402.982421875 255.483398438 485.842773438 255.483398438 c 4
 577.891601562 255.483398438 624.704101562 331.18359375 624.704101562 403.612304688 c 4
 624.704101562 476.037109375 581.891601562 548.88671875 494.024414062 548.88671875 c 4
 398.385742188 548.88671875 352.072265625 476.388671875 352.072265625 403.961914062 c 4x9f
1059.3359375 357.131835938 m 4
 1059.3359375 278.983398438 1114.26855469 196.920898438 1203.67578125 196.920898438 c 4
 1305.89160156 196.920898438 1353.51660156 278.606445312 1353.51660156 356.7578125 c 4
 1353.51660156 434.907226562 1305.89160156 513.508789062 1212.50585938 513.508789062 c 4x6f
 1109.30957031 513.508789062 1059.3359375 435.282226562 1059.3359375 357.131835938 c 4
35 360.314453125 m 0
 35 605.284179688 206.573242188 746.08203125 420.172851562 746.08203125 c 0
 653.677734375 746.08203125 800.26171875 564.934570312 800.26171875 371.081054688 c 0
 800.26171875 126.112304688 628.690429688 -14.6884765625 415.087890625 -14.6884765625 c 0x9f
 181.5859375 -14.6884765625 35 166.462890625 35 360.314453125 c 0
870 360.314453125 m 0
 870 605.284179688 1041.57324219 746.08203125 1255.17285156 746.08203125 c 0
 1488.67773438 746.08203125 1635.26171875 564.934570312 1635.26171875 371.081054688 c 0
 1635.26171875 126.112304688 1463.69042969 -14.6884765625 1250.08789062 -14.6884765625 c 0x6f
 1016.5859375 -14.6884765625 870 166.462890625 870 360.314453125 c 0
EndSplineSet
Validated: 1
LCarets2: 1 0
Ligature2: "'liga' Standard Ligatures in Latin lookup 0-1" O O
EndChar

StartChar: hyphen
Encoding: 45 45 98
Width: 400
Flags: W
HStem: 305.771 106.988<37.042 365.013>
LayerCount: 2
Fore
SplineSet
365.012695312 305.314453125 m 5
 37.0419921875 305.771484375 l 5
 28.8134765625 412.759765625 l 5
 371.186523438 417.032226562 l 5
 365.012695312 305.314453125 l 5
EndSplineSet
Validated: 1
EndChar

StartChar: cent
Encoding: 162 162 99
Width: 670
Flags: W
HStem: 82.1104 118.348<194.761 522.441> 499.885 128.787<236.023 521.468> 728.938 20G<378.099 445.514>
VStem: 30 124.83<277.695 427.021>
LayerCount: 2
Fore
SplineSet
578.651367188 685.2109375 m 1
 318.396484375 -15.1953125 l 1
 152.25 36.0439453125 l 1
 384.618164062 748.9375 l 1
 578.651367188 685.2109375 l 1
342.751953125 82.1103515625 m 0
 164.0703125 82.1103515625 30 184.331054688 30 362.181640625 c 0
 30 499.94140625 136.08203125 628.671875 337.619140625 628.671875 c 0
 541.629882812 628.671875 634.081054688 539.765625 634.081054688 539.765625 c 1
 591.067382812 446.801757812 l 1
 591.067382812 446.801757812 501.306640625 499.884765625 352.203125 499.884765625 c 0
 215.715820312 499.884765625 154.830078125 438.401367188 154.830078125 354.283203125 c 0
 154.830078125 262.815429688 225.451171875 200.458007812 368.979492188 200.458007812 c 0
 520.297851562 200.458007812 615.606445312 250.93359375 615.606445312 250.93359375 c 1
 650.869140625 161.084960938 l 1
 650.869140625 161.084960938 556.438476562 82.1103515625 342.751953125 82.1103515625 c 0
EndSplineSet
Validated: 5
EndChar

StartChar: brokenbar
Encoding: 166 166 100
Width: 158
Flags: W
VStem: 10 138.384<535.226 808.312> 23.457 116.366<157.481 282 432 628.493> 32.999 100.759<-90.9277 182.311>
LayerCount: 2
Fore
SplineSet
142.263135654 432 m 1x80
 19.6321732946 432 l 1
 10 809.745117188 l 1
 148.383789062 808.3125 l 1
 142.263135654 432 l 1x80
139.823413319 282 m 1
 133.7578125 -90.927734375 l 1
 32.9990234375 -92.2080078125 l 1x20
 23.4570433682 282 l 1x40
 139.823413319 282 l 1
EndSplineSet
Validated: 1
EndChar

StartChar: dieresis
Encoding: 168 168 101
Width: 483
Flags: W
HStem: 566.503 172.489<58.6845 175.258 308.685 425.258>
VStem: 30 173.94<593.95 711.546> 280 173.94<593.95 711.546>
LayerCount: 2
Fore
SplineSet
280 651.006835938 m 0
 280 706.879417321 319.107927328 738.9921875 367.794921875 738.9921875 c 0
 420.717459232 738.9921875 453.940429688 698.172734168 453.940429688 654.489257812 c 4
 453.940429688 598.617153969 414.835594402 566.502929688 366.1484375 566.502929688 c 0
 313.223995629 566.502929688 280 607.32386021 280 651.006835938 c 0
30 651.006835938 m 0
 30 706.879417321 69.1079273275 738.9921875 117.794921875 738.9921875 c 0
 170.717459232 738.9921875 203.940429688 698.172734168 203.940429688 654.489257812 c 0
 203.940429688 598.617153969 164.835594402 566.502929688 116.1484375 566.502929688 c 0
 63.223995629 566.502929688 30 607.32386021 30 651.006835938 c 0
EndSplineSet
Validated: 1
EndChar

StartChar: asciitilde
Encoding: 126 126 102
Width: 546
VWidth: 999
Flags: W
HStem: 257 110<316.883 435.241> 344 109<111.19 231.164>
LayerCount: 2
Fore
SplineSet
536 358 m 5x80
 536 358 480.024414062 257 377 257 c 4x80
 289.461914062 257 235.615234375 344 169 344 c 4
 116.577148438 344 75 288 75 288 c 5
 10 361 l 5
 10 361 73.2509765625 453 170 453 c 4x40
 256.307617188 453 316.307617188 367 378 367 c 4
 431.939453125 367 467 420 467 420 c 5
 536 358 l 5x80
EndSplineSet
Validated: 1
EndChar

StartChar: underscore
Encoding: 95 95 103
Width: 650
Flags: W
HStem: -115.604 108.504<37.043 615.014>
LayerCount: 2
Fore
SplineSet
615.013671875 -115.604492188 m 5
 37.04296875 -118.302734375 l 1
 28.814453125 -12.998046875 l 1
 621.185546875 -7.1005859375 l 5
 615.013671875 -115.604492188 l 5
EndSplineSet
Validated: 1
EndChar

StartChar: grave
Encoding: 96 96 104
Width: 284
Flags: W
HStem: 526 228
VStem: 10 264
LayerCount: 2
Fore
SplineSet
95 754 m 17
 149.037735849 668.032258065 199.391080617 629.758789062 274 590 c 13
 238 526 l 21
 178.032443806 533.057088398 71.0339298529 591.80757805 10 690 c 9
 95 754 l 17
EndSplineSet
Validated: 1
EndChar

StartChar: acute
Encoding: 180 180 105
Width: 284
Flags: W
HStem: 526 228
VStem: 10 264
LayerCount: 2
Fore
SplineSet
189 754 m 9
 274 690 l 17
 212.965820312 591.807617188 105.967773438 533.056640625 46 526 c 13
 10 590 l 21
 84.609375 629.758789062 134.961914062 668.032226562 189 754 c 9
EndSplineSet
Validated: 1
EndChar

StartChar: asciicircum
Encoding: 94 94 106
Width: 476
Flags: W
HStem: 713.415 20G<167.612 318.741>
LayerCount: 2
Fore
SplineSet
167.612304688 730.033203125 m 1
 309.00390625 733.415039062 l 1
 466.836914062 409.2265625 l 1
 393.85546875 368.426757812 l 1
 240.438476562 579.478515625 l 5
 86.6220703125 368.426757812 l 1
 10 415.987304688 l 1
 167.612304688 730.033203125 l 1
EndSplineSet
Validated: 1
EndChar

StartChar: asterisk
Encoding: 42 42 109
Width: 448
Flags: W
HStem: 713 20G<186.939 261.3>
VStem: 191.3 70<700.897 729>
LayerCount: 2
Fore
SplineSet
191.299804688 733 m 25
 261.299804688 729 l 25
 285.299804688 596 l 29
 416.899414062 588.900390625 l 25
 428.599609375 529.5 l 25
 317 476.400390625 l 25
 376.399414062 352.200195312 l 25
 322.399414062 314.400390625 l 25
 220.700195312 405.299804688 l 25
 119 310.799804688 l 25
 64.099609375 349.5 l 25
 134.299804688 482.700195312 l 25
 20 544.799804688 l 25
 26.2998046875 595.200195312 l 25
 162.299804688 600 l 25
 191.299804688 733 l 25
EndSplineSet
Validated: 1
EndChar

StartChar: .notdef
Encoding: 65536 -1 110
Width: 831
Flags: W
HStem: 0.0078125 222.926<202.738 334.201> 0.0078125 106.2<333.734 674.8> 26.5869 89.6211<221.135 352.598> 304.695 91.0244<401.777 541.419> 624.808 106.2<156.2 313.336 346.412 643.422>
VStem: 50 106.2<128.586 624.808> 484.348 186.484<400.288 512.897> 674.8 106.2<106.208 602.445>
LayerCount: 2
Back
SplineSet
196.19921875 584.807617188 m 5
 196.19921875 146.208007812 l 5
 634.798828125 146.208007812 l 5
 634.798828125 584.807617188 l 5
 196.19921875 584.807617188 l 5
50 731.0078125 m 5
 781 731.0078125 l 5
 781 0.0078125 l 5
 50 0.0078125 l 5
 50 731.0078125 l 5
EndSplineSet
Fore
SplineSet
749.622070312 731.0078125 m 1x1f
 643.421875 624.807617188 l 1
 156.200195312 624.807617188 l 1
 156.200195312 128.5859375 l 1
 50 22.3857421875 l 1
 50 731.0078125 l 1
 749.622070312 731.0078125 l 1x1f
81.3623046875 0.0078125 m 1x5f
 187.5625 116.208007812 l 1x3f
 674.799804688 106.208007812 l 1
 674.799804688 602.4453125 l 1
 781 708.645507812 l 1
 781 0.0078125 l 1
 81.3623046875 0.0078125 l 1x5f
260.7890625 222.93359375 m 4x9f
 334.201171875 222.93359375 395.169921875 174.421875 395.169921875 116.010742188 c 4
 395.169921875 64.4208984375 352.59765625 26.5869140625 294.546875 26.5869140625 c 4x3f
 221.134765625 26.5869140625 160.16796875 75.0986328125 160.16796875 133.510742188 c 4
 160.16796875 185.100585938 202.73828125 222.93359375 260.7890625 222.93359375 c 4x9f
241.173828125 528.627929688 m 5
 313.3359375 721.797851562 l 5
 313.3359375 721.797851562 323.19140625 719.53515625 346.412109375 713.313476562 c 4
 547.365234375 659.467773438 670.83203125 563.815429688 670.83203125 461.978515625 c 4
 670.83203125 366.948242188 597.4375 304.6953125 485.400390625 304.6953125 c 4
 442.470703125 304.6953125 409.197265625 313.08984375 409.197265625 313.08984375 c 5
 368.734375 239.681640625 l 5
 259.630859375 275.393554688 l 5
 287.1640625 422.091796875 l 5
 290.953125 420.938476562 374.412109375 395.719726562 431.4921875 395.719726562 c 4
 465.599609375 395.719726562 484.34765625 405.211914062 484.34765625 422.48046875 c 4
 484.34765625 450.404296875 422.501953125 481.684570312 305.0859375 513.145507812 c 4
 262.75 524.489257812 241.173828125 528.627929688 241.173828125 528.627929688 c 5
EndSplineSet
Validated: 5
EndChar

StartChar: uni00AD
Encoding: 173 173 111
Width: 400
Flags: W
HStem: 305.771 106.988<37.042 365.013>
LayerCount: 2
Fore
SplineSet
365.012695312 305.314453125 m 1
 37.0419921875 305.771484375 l 1
 28.8134765625 412.759765625 l 1
 371.186523438 417.032226562 l 1
 365.012695312 305.314453125 l 1
EndSplineSet
Validated: 1
EndChar

StartChar: logicalnot
Encoding: 172 172 112
Width: 500
Flags: W
HStem: 291.33 134.474<132.653 337.229> 301.602 125.305<37.043 241.619>
LayerCount: 2
Fore
SplineSet
461.185546875 425.803710938 m 1x80
 476.915039062 173.432617188 l 1
 338.92578125 167.661132812 l 1
 337.229060111 291.33005604 l 1x80
 37.04296875 301.6015625 l 1
 28.814453125 426.90625 l 1x40
 461.185546875 425.803710938 l 1x80
EndSplineSet
Validated: 1
EndChar

StartChar: plusminus
Encoding: 177 177 113
Width: 500
Flags: W
HStem: 121.323 127.053<205.396 465.827> 122.987 113.879<37.6133 298.044> 324.602 128.504<34.9863 462.957>
VStem: 183.028 136.989<146.427 574.399>
LayerCount: 2
Fore
SplineSet
473.986328125 121.323242188 m 1xb0
 36.013671875 122.987304688 l 1
 37.61328125 236.866210938 l 1x70
 465.827148438 248.375976562 l 1
 473.986328125 121.323242188 l 1xb0
34.986328125 453.10546875 m 5
 462.95703125 455.803710938 l 5
 471.185546875 330.499023438 l 5
 28.814453125 324.6015625 l 5
 34.986328125 453.10546875 l 5
182.571289062 574.399414062 m 1
 324.288085938 580.569335938 l 1
 320.017578125 138.198242188 l 1
 183.028320312 146.426757812 l 1
 182.571289062 574.399414062 l 1
EndSplineSet
Validated: 5
EndChar

StartChar: degree
Encoding: 176 176 114
Width: 418
Flags: W
HStem: 375.112 107.009<159.341 258.67> 624.295 107.009<159.571 258.901>
VStem: 30 110.482<500.458 606.028> 277.761 110.482<500.388 605.958>
LayerCount: 2
Fore
SplineSet
140.482421875 552.366210938 m 0
 140.482421875 516.05402308 166.80091483 482.12109375 208.72265625 482.12109375 c 0
 247.008800614 482.12109375 277.760742188 508.373421753 277.760742188 554.049804688 c 0
 277.760742188 590.362377578 251.442380188 624.294921875 209.518554688 624.294921875 c 0
 171.234513317 624.294921875 140.482421875 598.042883655 140.482421875 552.366210938 c 0
30 550.752929688 m 0
 30 665.40625 110.3046875 731.303710938 210.279296875 731.303710938 c 0
 319.610351562 731.303710938 388.243164062 646.458007812 388.243164062 555.662109375 c 0
 388.243164062 441.009765625 307.938476562 375.112304688 207.958984375 375.112304688 c 0
 98.6328125 375.112304688 30 459.958007812 30 550.752929688 c 0
EndSplineSet
Validated: 1
EndChar

StartChar: macron
Encoding: 175 175 115
Width: 390
Flags: W
HStem: 624.748 108.989<121.24 354.48> 634.291 93.7168<36.5078 269.749>
VStem: 30.3369 332.371
LayerCount: 2
Fore
SplineSet
36.5078125 634.291015625 m 5x60
 30.3369140625 728.0078125 l 1x60
 362.708007812 733.737304688 l 1
 354.48046875 624.748046875 l 5xa0
 36.5078125 634.291015625 l 5x60
EndSplineSet
Validated: 1
EndChar

StartChar: copyright
Encoding: 169 169 119
Width: 835
Flags: W
HStem: -14.6885 93.8867<305.364 527.495> 184.007 93.0535<430.092 506.333> 466.892 94.498<425.458 498.406> 654.998 91.084<303.006 535.079>
VStem: 35 95.0693<263.278 478.79> 243.107 152.055<316.87 430.473> 701.752 98.5098<255.843 478.821>
LayerCount: 2
Fore
SplineSet
35 360.314453125 m 4
 35 605.284566003 206.572904558 746.08203125 420.172851562 746.08203125 c 4
 653.677857202 746.08203125 800.26171875 564.934114168 800.26171875 371.081054688 c 4
 800.26171875 126.111862359 628.690706884 -14.6884765625 415.087890625 -14.6884765625 c 4
 181.585754949 -14.6884765625 35 166.463269815 35 360.314453125 c 4
130.069335938 369.211914062 m 4
 130.069335938 227.744326506 237.701684003 79.1982421875 412.876953125 79.1982421875 c 4
 604.465214553 79.1982421875 701.751953125 227.19721942 701.751953125 368.796875 c 4
 701.751953125 511.479549352 607.403963954 654.998046875 422.616210938 654.998046875 c 4
 225.516361472 654.998046875 130.069335938 512.034150985 130.069335938 369.211914062 c 4
EndSplineSet
Refer: 22 67 N 0.5 0 0 0.5 228.107 191.349 2
EndChar

StartChar: registered
Encoding: 174 174 120
Width: 835
Flags: W
HStem: -14.6885 93.8867<305.364 527.495> 473.768 84.5<350.719 418.949> 654.998 91.084<303.006 535.079>
VStem: 35 95.0693<263.278 478.79> 435.131 132.737<403.366 459.725> 701.752 98.5098<255.843 478.821>
LayerCount: 2
Fore
SplineSet
35 360.314453125 m 4
 35 605.284566003 206.572904558 746.08203125 420.172851562 746.08203125 c 4
 653.677857202 746.08203125 800.26171875 564.934114168 800.26171875 371.081054688 c 4
 800.26171875 126.111862359 628.690706884 -14.6884765625 415.087890625 -14.6884765625 c 4
 181.585754949 -14.6884765625 35 166.463269815 35 360.314453125 c 4
130.069335938 369.211914062 m 4
 130.069335938 227.744326506 237.701684003 79.1982421875 412.876953125 79.1982421875 c 4
 604.465214553 79.1982421875 701.751953125 227.19721942 701.751953125 368.796875 c 4
 701.751953125 511.479549352 607.403963954 654.998046875 422.616210938 654.998046875 c 4
 225.516361472 654.998046875 130.069335938 512.034150985 130.069335938 369.211914062 c 4
EndSplineSet
Refer: 10 82 S 0.5 0 0 0.5 240.827 186.362 2
EndChar

StartChar: mu
Encoding: 181 181 121
Width: 684
Flags: W
HStem: -11.2881 229.997<251.361 362.69>
VStem: 30 181.303<-20.7519 455.602> 50 140<-3.88377 435.1> 395.82 228.18<257.402 581.88>
LayerCount: 2
Fore
SplineSet
229.552734375 578.166992188 m 1xd0
 229.552734375 578.166992188 190 411 190 109 c 0
 190 -33.626370614 220 -156 220 -156 c 1
 50 -170 l 1xb0
 50 -170 30 -34.4278944672 30 115 c 0
 30 451 84.048828125 599.399414062 84.048828125 599.399414062 c 1
 229.552734375 578.166992188 l 1xd0
627.3203125 588.12890625 m 1
 627.3203125 588.12890625 624 546.875331708 624 462 c 0
 624 216 674 8 674 8 c 1
 530 -10 l 1
 484 90 l 1
 484 90 440.428385268 -11.2880859375 287.37890625 -11.2880859375 c 0
 133.921445925 -11.2880859375 50 153.803710938 50 317.598632812 c 0xb0
 50 459.200830688 84.048828125 599.399414062 84.048828125 599.399414062 c 1
 229.552734375 578.166992188 l 1
 229.552734375 578.166992188 211.302734375 460.203699505 211.302734375 353.438476562 c 0xd0
 211.302734375 282.200823235 236.803776017 218.708984375 308.258789062 218.708984375 c 0
 373.723112238 218.708984375 395.8203125 279.9375 395.8203125 348.306640625 c 0
 395.8203125 459.803342531 390.716796875 581.96875 390.716796875 581.96875 c 1
 627.3203125 588.12890625 l 1
EndSplineSet
EndChar

StartChar: Thorn
Encoding: 222 222 122
Width: 721
Flags: W
HStem: -0.448242 21G<59.9326 356.897> 139.98 136.306<356.435 482.974> 454.267 132.973<348.505 481.619> 713.732 20G<75.5965 341.123>
VStem: 59.9326 296.965<-0.448242 318.71> 76.0352 265.088<414.574 729.755> 515.348 175.803<306.747 419.199>
LayerCount: 2
Fore
SplineSet
428.15625 587.239257812 m 0xf2
 572.432204026 587.239257812 691.150390625 504.140346904 691.150390625 359.560546875 c 0
 691.150390625 247.382132756 620.35261492 139.98046875 431.40625 139.98046875 c 0
 263.485446761 139.98046875 160.408203125 212.845703125 160.408203125 212.845703125 c 1
 209.45703125 338.93359375 l 1
 209.45703125 338.93359375 287.794786231 276.286132812 408.703125 276.286132812 c 0
 482.318715399 276.286132812 515.34765625 314.428026942 515.34765625 361.778320312 c 0
 515.34765625 415.125035121 476.180134255 454.266601562 411 454.266601562 c 0
 300.465861684 454.266601562 223.6796875 397.436523438 223.6796875 397.436523438 c 1
 173.41796875 489.296875 l 5
 173.41796875 489.296875 240.525390626 587.239257812 428.15625 587.239257812 c 0xf2
59.9326171875 -0.4482421875 m 1xfa
 76.03515625 733.732421875 l 1
 341.123046875 729.754882812 l 1xf6
 356.897460938 -0.4482421875 l 1
 59.9326171875 -0.4482421875 l 1xfa
EndSplineSet
EndChar

StartChar: uni1E9E
Encoding: 7838 7838 124
Width: 809
Flags: W
HStem: -10 196.044<389.897 547.585> 555.626 177.543<290.752 511>
VStem: 41.6406 240.842<2.56738 469.912> 48 242.752<83.0111 555.626> 567 212<134.916 291.135>
LayerCount: 2
Fore
SplineSet
727.06640625 729.24609375 m 1xd8
 750.666015625 555.65234375 l 1
 589.326171875 404 l 1
 589.326171875 404 779 377.223072222 779 201 c 0
 779 68.8325030741 689.110701132 -10 532 -10 c 0
 406.311111111 -10 330 37 330 37 c 1
 358 216 l 1
 358 216 413.486891734 186.043945312 472.469726562 186.043945312 c 0
 530.506994655 186.043945312 567 208.182201765 567 250 c 0
 567 293.567242843 521.641214854 309.73828125 471.5234375 309.73828125 c 0
 424.530736971 309.73828125 394 299 394 299 c 1
 371 389 l 1
 511 556.141601562 l 5
 290.751953125 555.625976562 l 1xd8
 282.482421875 -2.703125 l 1
 41.640625 2.5673828125 l 1xe8
 48 733.168945312 l 1
 727.06640625 729.24609375 l 1xd8
EndSplineSet
EndChar

StartChar: Eth
Encoding: 208 208 126
Width: 839
Flags: W
HStem: -10.0684 166.205<267.308 500.128> 304.314 111.718<51.9396 371.187> 311.771 106.988<34.8135 351.115> 555.416 190.248<275.81 509.61>
VStem: 100 165.521<158.391 279.11> 119.568 154.543<475.558 551.706> 481.826 327.775<241.321 467.341>
LayerCount: 2
Fore
SplineSet
372.012695312 304.314453125 m 5xd2
 31.0419921875 311.771484375 l 5
 34.8134765625 418.759765625 l 5xb2
 371.186523438 416.032226562 l 5
 372.012695312 304.314453125 l 5xd2
EndSplineSet
Refer: 23 68 N 1 0 0 1 50 0 2
EndChar

StartChar: currency
Encoding: 164 164 128
Width: 588
Flags: W
HStem: 138.312 99.2725<222.52 359.413> 496.612 96.4697<223.29 364.099>
VStem: 62 106.395<295.645 442.479> 413.427 109.835<294.275 444.526>
LayerCount: 2
Fore
SplineSet
464 263 m 1
 578 183 l 1
 475 86 l 1
 400 206 l 5
 464 263 l 1
124 263 m 1
 188 206 l 1
 113 86 l 1
 10 183 l 1
 124 263 l 1
464 486 m 1
 400 543 l 5
 475 663 l 1
 578 566 l 1
 464 486 l 1
124 486 m 1
 10 566 l 1
 113 663 l 1
 188 543 l 1
 124 486 l 1
62 360.314453125 m 0
 62 508.126953125 165.865551218 593.08203125 295.172851562 593.08203125 c 0
 435.297430449 593.08203125 523.26171875 485.841796875 523.26171875 371.081054688 c 0
 523.26171875 223.26953125 419.397114462 138.311523438 290.087890625 138.311523438 c 0
 149.965235836 138.311523438 62 245.553710938 62 360.314453125 c 0
168.39453125 369.150390625 m 0
 168.39453125 304.97265625 213.900802502 237.583984375 287.96484375 237.583984375 c 0
 371.174117513 237.583984375 413.426757812 304.614257812 413.426757812 368.747070312 c 0
 413.426757812 432.493164062 374.216384135 496.612304688 297.420898438 496.612304688 c 0
 210.490766712 496.612304688 168.39453125 432.849609375 168.39453125 369.150390625 c 0
EndSplineSet
EndChar

StartChar: dotlessi
Encoding: 305 305 129
Width: 411
Flags: W
HStem: -0.448242 21G<59.9326 356.897>
VStem: 59.9326 296.965<-0.448242 150.837>
LayerCount: 2
Fore
SplineSet
59.9326171875 -0.4482421875 m 1
 69.03515625 495.732421875 l 1
 334.123046875 491.754882812 l 1
 356.897460938 -0.4482421875 l 1
 59.9326171875 -0.4482421875 l 1
EndSplineSet
EndChar

StartChar: IJ
Encoding: 306 306 131
Width: 861
Flags: W
HStem: -19.1504 170.56<285.845 468.786> 721.553 12.4551G<50 216.261 496.609 819.199>
VStem: 50 165.088<614.715 728.985> 525.267 244.862<204.907 449.762>
LayerCount: 2
Fore
SplineSet
831.704101562 492.958984375 m 1
 312.58203125 475.942382812 l 1
 300.96484375 709.381835938 l 1
 818.104492188 741.552734375 l 1
 831.704101562 492.958984375 l 1
450.090820312 591.448242188 m 1
 673.41796875 635.950195312 l 1
 673.41796875 635.950195312 770.12890625 483.056640625 770.12890625 286.861328125 c 4
 770.12890625 101.044921875 652.9611672 -19.150390625 425.6796875 -19.150390625 c 0
 178.739289127 -19.150390625 95.9091796875 106.280273438 95.9091796875 106.280273438 c 1
 187.581054688 241.65234375 l 1
 187.581054688 241.65234375 259.938476562 151.409179688 389.8046875 151.409179688 c 0
 488.310546875 151.409179688 525.266601562 216.4140625 525.266601562 286.654296875 c 4
 525.266601562 471.966796875 450.090820312 591.448242188 450.090820312 591.448242188 c 1
60.8974609375 305.8046875 m 1
 50 728.985351562 l 1
 215.087890625 734.0078125 l 1
 239.862304688 311.8046875 l 1
 60.8974609375 305.8046875 l 1
EndSplineSet
EndChar

StartChar: Eng
Encoding: 330 330 133
Width: 764
Flags: W
HStem: -130.303 144.303<314.104 495.032> 509.402 229.997<309.082 536.672> 718.111 20G<10 163.2>
VStem: 55 173.18<6.28105 459.297> 462.697 271.303<96.8112 441.145>
LayerCount: 2
Back
SplineSet
46.6796875 -0.017578125 m 5
 46.6796875 -0.017578125 55 90.9379993794 55 226.111328125 c 4
 55 493.785336936 10 720.111328125 10 720.111328125 c 5
 154 738.111328125 l 5
 200 638.111328125 l 5
 200 638.111328125 270.219297407 739.399414062 426.62109375 739.399414062 c 4
 632.401349012 739.399414062 714 574.307617188 714 410.512695312 c 4xb0
 714 198.561325488 689.951171875 -11.2880859375 689.951171875 -11.2880859375 c 5
 424.447265625 9.9443359375 l 5
 424.447265625 9.9443359375 452.697265625 196.145899962 452.697265625 364.672851562 c 4xd0
 452.697265625 441.197588388 423.251051711 509.40234375 340.741210938 509.40234375 c 4
 256.586523679 509.40234375 228.1796875 443.449320183 228.1796875 369.8046875 c 4
 228.1796875 196.275227001 233.283203125 6.142578125 233.283203125 6.142578125 c 5
 46.6796875 -0.017578125 l 5
EndSplineSet
Fore
SplineSet
46.6796875 -0.017578125 m 1xd8
 46.6796875 -0.017578125 55 90.9379993794 55 226.111328125 c 0
 55 493.785336936 10 720.111328125 10 720.111328125 c 1
 154 738.111328125 l 1xb8
 200 638.111328125 l 1
 200 638.111328125 270.219297407 739.399414062 426.62109375 739.399414062 c 0
 646.722529223 739.399414062 734 574.307617188 734 294 c 0
 734 -66.883465688 575.443228814 -130.302734375 414.62109375 -130.302734375 c 0
 348.215921666 -130.302734375 303 -116 303 -116 c 1
 315 20 l 1
 315 20 332.710852977 14 359 14 c 0
 412.520414392 14 462.697265625 56.2547739351 462.697265625 296 c 4
 462.697265625 441.197588388 430.620893476 509.40234375 340.741210938 509.40234375 c 0
 256.586523679 509.40234375 228.1796875 443.449320183 228.1796875 369.8046875 c 0
 228.1796875 196.275227001 233.283203125 6.142578125 233.283203125 6.142578125 c 1
 46.6796875 -0.017578125 l 1xd8
EndSplineSet
EndChar

StartChar: AE
Encoding: 198 198 136
Width: 1035
Flags: W
HStem: -7.77539 211.74<798.459 989.651> 202.739 106.988<227.627 276.062> 295.438 128.29<668.526 947.542> 303.957 123.116<655.592 889.303> 525.804 213.095<667.402 1003.32>
VStem: 498.667 168.735<294 303.957 427.073 518.934> 498.667 71.333<162.282 294>
LayerCount: 2
Fore
SplineSet
563.826171875 162.282226562 m 1x4a
 215.85546875 202.739257812 l 1
 227.626953125 309.727539062 l 1
 570 294 l 1
 563.826171875 162.282226562 l 1x4a
655.591796875 427.073242188 m 1x18
 947.541992188 423.727539062 l 1
 950.516601562 295.4375 l 1x28
 607.3125 303.95703125 l 1
 655.591796875 427.073242188 l 1x18
498.666992188 532.31640625 m 5x8a
 216.62109375 -24.09765625 l 1
 10 86.4619140625 l 1
 400.611328125 727.0078125 l 1
 1003.31640625 738.8984375 l 1
 1005.59277344 525.803710938 l 1
 667.40234375 518.93359375 l 1x8c
 671.578125 199.380859375 l 1
 989.651367188 203.96484375 l 1
 1000.47851562 -7.775390625 l 1
 494.611328125 9.7529296875 l 1
 498.666992188 532.31640625 l 5x8a
EndSplineSet
EndChar

StartChar: OE
Encoding: 338 338 138
Width: 1240
Flags: W
HStem: -17.7754 174.74<1059.52 1200.87> -14.6885 222.272<276.161 417.066> 526.612 219.47<278.426 422.243> 558.934 179.965<937.791 1185.98>
VStem: 35 173.395<285.97 451.964> 488.427 286.835<283.648 454.041> 927.701 14.2656<296.957 420.073>
LayerCount: 2
Fore
SplineSet
35 360.314453125 m 0x6e
 35 605.284566003 202.118465367 746.08203125 410.172851562 746.08203125 c 0
 634.462709412 746.08203125 775.26171875 564.934114168 775.26171875 371.081054688 c 4
 775.26171875 126.111862359 610.372275023 -14.6884765625 405.087890625 -14.6884765625 c 0
 177.729127086 -14.6884765625 35 166.463269815 35 360.314453125 c 0x6e
208.39453125 369.150390625 m 0
 208.39453125 290.338900206 259.609978904 207.583984375 342.96484375 207.583984375 c 0
 439.438388429 207.583984375 488.426757812 289.946154578 488.426757812 368.747070312 c 4
 488.426757812 447.449172335 442.45672457 526.612304688 352.420898438 526.612304688 c 0
 255.384909618 526.612304688 208.39453125 447.842322159 208.39453125 369.150390625 c 0
EndSplineSet
Refer: 24 69 S 1 0 0 1 595 0 2
EndChar

StartChar: Oslash
Encoding: 216 216 140
Width: 835
Flags: W
HStem: -14.6885 222.272<340.71 487.789> 526.612 219.47<341.505 495.041>
VStem: 35 233.395<287.611 450.389> 563.427 236.835<283.648 454.041>
LayerCount: 2
Fore
SplineSet
669.0625 795.614257812 m 5
 779.4375 712.12890625 l 5
 156.770507812 -43.8388671875 l 5
 77.8642578125 18.8310546875 l 5
 669.0625 795.614257812 l 5
EndSplineSet
Refer: 2 79 S 1 0 0 1 0 0 2
EndChar

StartChar: uni018F
Encoding: 399 399 142
Width: 787
Flags: W
HStem: -14.6846 188.996<338.607 496.813> 301.561 105.104<356.649 522.225> 513.975 226.107<215.135 444.046>
LayerCount: 2
Fore
SplineSet
273.7421875 291.717773438 m 5
 288.842880203 222.942784495 339.101649903 174.311523438 419.219726562 174.311523438 c 4
 499.11688514 174.311523438 549.349061136 219.460019583 560.796875 301.560546875 c 5
 273.7421875 291.717773438 l 5
370.887695312 740.08203125 m 4
 591.481142029 740.08203125 757 599.284584015 757 354.31640625 c 4
 757 163.564987645 629.482921198 -14.6845703125 387.223632812 -14.6845703125 c 4
 112.519430176 -14.6845703125 26.1679620117 184.13503033 20 388.397460938 c 5
 522.224609375 406.665039062 l 5
 522.224609375 406.665039062 497.495674858 513.974609375 348.5078125 513.974609375 c 4
 225.549657614 513.974609375 148.104492188 461.659179688 148.104492188 461.659179688 c 5
 80.5703125 660.583007812 l 5
 80.5703125 660.583007812 169.545927739 740.08203125 370.887695312 740.08203125 c 4
EndSplineSet
EndChar

StartChar: uni01B7
Encoding: 439 439 144
Width: 669
Flags: W
HStem: -13.4834 166.702<115.829 389.558> 508.557 234.633<41.498 313.648>
VStem: 421.82 218.092<181.796 276.875>
LayerCount: 2
Fore
SplineSet
37.3203125 743.189453125 m 1
 595.35546875 738.323242188 l 5
 612.390625 539.2578125 l 5
 437.29296875 421.534179688 l 1
 437.29296875 421.534179688 639.912109375 396.216796875 639.912109375 205.18359375 c 0
 639.912109375 79.6798756671 531.389429587 -13.4833984375 309.521484375 -13.4833984375 c 0
 128.365234375 -13.4833984375 30 25.19140625 30 25.19140625 c 1
 66.765625 188.524414062 l 1
 66.765625 188.524414062 172.36057181 153.21875 287.716796875 153.21875 c 0
 375.24609375 153.21875 421.8203125 178.546875 421.8203125 229.696289062 c 0
 421.8203125 277.745117188 376.770261049 304.688476562 300.013671875 304.688476562 c 0
 231.120487144 304.688476562 165.33203125 290.055664062 165.33203125 290.055664062 c 1
 145.86328125 403.865234375 l 1
 313.6484375 514.041015625 l 5
 41.498046875 508.556640625 l 1
 37.3203125 743.189453125 l 1
EndSplineSet
EndChar

StartChar: florin
Encoding: 402 402 146
Width: 754
Flags: W
HStem: -12.5732 239.843<98.9787 255.573> 540.993 203.977<495.796 673.365>
VStem: 290.643 175.485<271.46 500.632>
LayerCount: 2
Fore
SplineSet
161.19140625 453.510742188 m 1
 642 442 l 1
 643.93359375 301.6015625 l 1
 156.1328125 327.591796875 l 1
 161.19140625 453.510742188 l 1
537.73046875 744.969726562 m 0
 663.76607203 744.969726562 734.873046875 707.719726562 734.873046875 707.719726562 c 1
 679.663085938 507.153320312 l 1
 679.663085938 507.153320312 623.107812007 540.993164062 547.138671875 540.993164062 c 0
 476.249398336 540.993164062 472.175110042 492.13252475 466.127929688 282 c 0
 459.585143547 54.6457472625 375.61516912 -12.5732421875 219.033203125 -12.5732421875 c 0
 91.2808689416 -12.5732421875 20 35.404296875 20 35.404296875 c 1
 66.0693359375 266.584960938 l 1
 66.0693359375 266.584960938 122.386088092 227.26953125 185.002929688 227.26953125 c 0
 249.182372392 227.26953125 286.066764229 239.450643743 290.642578125 394 c 0
 296.562104021 593.93359375 304.996003718 744.969726562 537.73046875 744.969726562 c 0
EndSplineSet
EndChar

StartChar: quoteleft
Encoding: 8216 8216 151
Width: 305
Flags: W
VStem: 10 305.257
LayerCount: 2
Fore
SplineSet
192.321289062 757.669921875 m 1
 315.256835938 426.489257812 l 1
 235.810546875 383.720703125 l 1
 10 648.352539062 l 1
 192.321289062 757.669921875 l 1
EndSplineSet
EndChar

StartChar: quotedblleft
Encoding: 8220 8220 152
Width: 525
Flags: W
LayerCount: 2
Fore
SplineSet
412.321289062 807.669921875 m 1
 535.256835938 476.489257812 l 1
 455.810546875 433.720703125 l 1
 230 698.352539062 l 1
 412.321289062 807.669921875 l 1
192.321289062 687.669921875 m 1
 315.256835938 356.489257812 l 1
 235.810546875 313.720703125 l 1
 10 578.352539062 l 1
 192.321289062 687.669921875 l 1
EndSplineSet
EndChar

StartChar: bullet
Encoding: 8226 8226 153
Width: 407
Flags: W
HStem: 178 329
LayerCount: 2
Fore
SplineSet
110 507 m 29
 290 508 l 29
 397 349 l 25
 300 183 l 29
 114 178 l 29
 10 338 l 25
 110 507 l 29
EndSplineSet
EndChar

StartChar: endash
Encoding: 8211 8211 158
Width: 580
Flags: W
HStem: 301.499 111.718<32.9873 544.958>
LayerCount: 2
Fore
SplineSet
32.9873046875 413.216796875 m 1
 544.958007812 412.759765625 l 5
 551.186523438 305.771484375 l 5
 28.8134765625 301.499023438 l 1
 32.9873046875 413.216796875 l 1
EndSplineSet
EndChar

StartChar: emdash
Encoding: 8212 8212 159
Width: 790
Flags: W
HStem: 303.771 110.988<159.552 755.187> 311.499 94.7178<34.8135 628.394>
LayerCount: 2
Fore
SplineSet
26.9873046875 406.216796875 m 1x40
 760.958007812 414.759765625 l 5
 755.186523438 303.771484375 l 5x80
 34.8134765625 311.499023438 l 1
 26.9873046875 406.216796875 l 1x40
EndSplineSet
EndChar

StartChar: uni203D
Encoding: 8253 8253 160
Width: 595
Flags: W
HStem: -14.6885 212.914<154.224 316.398> 311.719 151.584<181.85 365.104> 624.488 118.715<45.5147 369.35>
VStem: 103.65 263.322<31.1398 152.4> 412.239 153.549<499.388 587.394>
LayerCount: 2
Fore
SplineSet
157.646484375 245.8671875 m 1
 110 548.27734375 l 1
 345.108398438 553.76953125 l 1
 303.623046875 249.544921875 l 1
 157.646484375 245.8671875 l 1
47 604.725585938 m 1
 34.896484375 724.796875 l 1
 34.896484375 724.796875 125.424448812 743.203125 236 743.203125 c 4
 448.382718198 743.203125 565.788085938 652.909179688 565.788085938 523.635742188 c 0
 565.788085938 390.428341721 444.880079235 311.71875 272.31640625 311.71875 c 0
 205 311.71875 181 319 181 319 c 1
 169.998046875 463.611328125 l 1
 169.998046875 463.611328125 179.130859375 463.302734375 193.694335938 463.302734375 c 0
 328 463.302734375 412.239257812 480.83534671 412.239257812 545.145507812 c 0
 412.239257812 597.004932102 346.942470932 624.48828125 243 624.48828125 c 0
 114.874131945 624.48828125 47 604.725585938 47 604.725585938 c 1
103.650390625 90.302734375 m 0
 103.650390625 158.8359375 162.676757812 198.225585938 236.163085938 198.225585938 c 0
 316.522460938 198.225585938 366.97265625 147.51171875 366.97265625 93.23828125 c 0
 366.97265625 24.705078125 307.9453125 -14.6884765625 234.45703125 -14.6884765625 c 0
 154.099609375 -14.6884765625 103.650390625 36.029296875 103.650390625 90.302734375 c 0
EndSplineSet
EndChar

StartChar: lira
Encoding: 8356 8356 161
Width: 629
Flags: W
HStem: -5.94531 162.367<260.75 592.664> 3.46387 157.373<260.75 461.039> 194.627 88.3506<27.1328 482.434> 314.627 108.351<23.1328 494.434> 730.251 20G<315.565 498.512>
LayerCount: 2
Fore
SplineSet
482.43359375 193.624023438 m 1x38
 27.1328125 194.626953125 l 1
 24.1328125 282.977539062 l 1
 491.431640625 278.4765625 l 1
 482.43359375 193.624023438 l 1x38
599.064453125 -5.9453125 m 5xb8
 60 3.4638671875 l 5
 107.349609375 399.838795531 138.111328125 663.374934661 493.01953125 750.250976562 c 5
 560.03515625 506.23828125 l 5
 364.543517096 473.328514624 295.619230199 380.664748223 260.75 160.836914062 c 5x78
 592.6640625 156.421875 l 5
 599.064453125 -5.9453125 l 5xb8
494.43359375 313.624023438 m 1
 23.1328125 314.626953125 l 1
 20.1328125 422.977539062 l 1
 503.431640625 418.4765625 l 1
 494.43359375 313.624023438 l 1
EndSplineSet
EndChar

StartChar: section
Encoding: 167 167 162
Width: 555
Flags: W
HStem: -11.5176 149.021<113.294 312.835> 550.967 189.521<226.812 406.432>
VStem: 30 119.744<368.666 432.8> 46.2002 174.535<481.113 612.823> 318.072 190.735<102.499 198.286> 405.264 119.744<280.789 344.073>
LayerCount: 2
Fore
SplineSet
213.973632812 452.448242188 m 1xe8
 213.973632812 452.448242188 149.744140625 438.736328125 149.744140625 401.637695312 c 4
 149.744140625 303.08203125 508.807617188 363.240234375 508.807617188 140.529296875 c 0
 508.807617188 64.4677734375 442.75390625 -11.517578125 263.602539062 -11.517578125 c 0
 120.0859375 -11.517578125 39.1171875 29.8544921875 39.1171875 29.8544921875 c 1
 74.1171875 176.11328125 l 1
 74.1171875 176.11328125 141.358398438 137.502929688 231.682617188 137.502929688 c 0
 299.557617188 137.502929688 318.072265625 152.543945312 318.072265625 172.514648438 c 0
 318.072265625 247.735351562 30 205.484375 30 394.126953125 c 0
 30 486.09765625 163.75390625 512.387695312 163.75390625 512.387695312 c 1
 213.973632812 452.448242188 l 1xe8
341.034179688 262.122070312 m 1
 341.034179688 262.122070312 405.263671875 275.833984375 405.263671875 312.932617188 c 0
 405.263671875 410.053710938 46.2001953125 350.771484375 46.2001953125 570.240234375 c 0
 46.2001953125 655.40625 112.25390625 740.487304688 291.405273438 740.487304688 c 0
 434.921875 740.487304688 515.890625 694.115234375 515.890625 694.115234375 c 1
 471.170898438 499.255859375 l 1
 471.170898438 499.255859375 392.62890625 550.966796875 287.125976562 550.966796875 c 0
 234.963867188 550.966796875 220.735351562 535.06640625 220.735351562 513.955078125 c 0
 220.735351562 448.271484375 525.0078125 485.165039062 525.0078125 320.442382812 c 0xd4
 525.0078125 228.471679688 391.25390625 202.181640625 391.25390625 202.181640625 c 1
 341.034179688 262.122070312 l 1
EndSplineSet
EndChar

StartChar: paragraph
Encoding: 182 182 163
Width: 867
Flags: W
HStem: 196.351 132.611<271.748 419.49> 518.923 221.946<286.267 645.375> 518.923 150.822<449.591 550.35 599.591 638.821>
VStem: 30 195.803<368.403 473.855> 449.591 100.759<560.259 668.465>
LayerCount: 2
Fore
SplineSet
743.975585938 -157.775390625 m 1xb8
 605.591796875 -162.208007812 l 1
 599.590820312 669.745117188 l 1
 700.349609375 668.46484375 l 1
 743.975585938 -157.775390625 l 1xb8
534.975585938 -164.775390625 m 1
 396.591796875 -159.208007812 l 1
 449.590820312 669.745117188 l 1
 550.349609375 668.46484375 l 1
 534.975585938 -164.775390625 l 1
452.994140625 740.869140625 m 0xd8
 693.744140625 740.869140625 847.732421875 682.983398438 847.732421875 682.983398438 c 1
 816.470703125 473.263671875 l 1
 816.470703125 473.263671875 638.820659856 518.922851562 410.150390625 518.922851562 c 0
 270.347346123 518.922851562 225.802734375 477.035513479 225.802734375 419.947265625 c 0
 225.802734375 369.554965266 271.220156735 328.961914062 372.447265625 328.961914062 c 0
 438.74125374 328.961914062 481.693359375 354.2578125 481.693359375 354.2578125 c 1
 500.7421875 232.081054688 l 1
 500.7421875 232.081054688 431.897460938 196.350585938 319.744140625 196.350585938 c 4
 108.974609375 196.350585938 30 318.220703125 30 445.51171875 c 0
 30 633.068359375 220.943359375 740.869140625 452.994140625 740.869140625 c 0xd8
EndSplineSet
EndChar

StartChar: ordfeminine
Encoding: 170 170 164
Width: 540
Flags: W
HStem: 105.771 106.988<37.042 495.013> 270.162 106.469<206.655 315.456> 470.902 76.3486<148.522 315.081> 604.09 134.902<102.062 293.174>
VStem: 38.7578 157.111<389.322 459.234>
LayerCount: 2
Fore
SplineSet
495.012695312 105.314453125 m 5
 37.0419921875 105.771484375 l 5
 28.8134765625 212.759765625 l 5
 501.186523438 217.032226562 l 5
 495.012695312 105.314453125 l 5
467.678710938 268.266601562 m 1
 347.080156561 289.297684121 341.154435198 392.430406077 337.604492188 489.337890625 c 0
 334.516110944 573.645513791 285.818515491 604.08984375 208.581054688 604.08984375 c 0
 130.627744565 604.08984375 81.197265625 571.963867188 81.197265625 571.963867188 c 1
 41.7451171875 703.877929688 l 1
 41.7451171875 703.877929688 105.674905269 738.9921875 204 738.9921875 c 0
 344.287536357 738.9921875 419.915758267 663.151407023 427.4921875 520.79296875 c 0
 431.385554379 447.637975623 437.596969328 393.881479189 499.646484375 383.75 c 1
 467.678710938 268.266601562 l 1
366.033203125 486.926757812 m 1
 353.131835938 453.40234375 l 1
 353.131835938 453.40234375 320.705348063 470.90234375 274.416015625 470.90234375 c 0
 218.876757811 470.90234375 195.869140625 454.265087382 195.869140625 424.220703125 c 0
 195.869140625 394.173853783 226.328574597 376.630859375 272.762695312 376.630859375 c 0
 327.308850518 376.630859375 359.969726562 417.676757812 359.969726562 417.676757812 c 1
 391.208984375 348.53515625 l 1
 391.208984375 348.53515625 334.976702098 270.162109375 212.184570312 270.162109375 c 0
 105.891998484 270.162109375 38.7578125 337.490163148 38.7578125 414.26171875 c 0
 38.7578125 491.031779564 93.4065747999 547.250976562 206.420898438 547.250976562 c 0
 325.74367794 547.250976562 366.033203125 486.926757812 366.033203125 486.926757812 c 1
EndSplineSet
EndChar

StartChar: ordmasculine
Encoding: 186 186 165
Width: 540
Flags: W
HStem: 105.771 106.988<37.042 495.013> 268.745 137.391<205.379 319.209> 603.333 135.659<205.888 323.624>
VStem: 27.917 144.266<443.379 568.067> 354.549 146.392<440.241 570.272>
LayerCount: 2
Fore
SplineSet
27.9169921875 500.541992188 m 4
 27.9169921875 651.962626201 133.969620275 738.9921875 266 738.9921875 c 4
 410.3340521 738.9921875 500.940429688 627.021366323 500.940429688 507.197265625 c 4
 500.940429688 355.776726988 394.889240391 268.745117188 262.857421875 268.745117188 c 4
 118.524772923 268.745117188 27.9169921875 380.718665624 27.9169921875 500.541992188 c 4
172.182617188 506.002929688 m 4
 172.182617188 457.288088072 206.192573418 406.135742188 261.544921875 406.135742188 c 4
 323.227160575 406.135742188 354.548828125 457.045465938 354.548828125 505.75390625 c 4
 354.548828125 554.400971811 325.088991571 603.333007812 267.389648438 603.333007812 c 4
 203.245085186 603.333007812 172.182617188 554.643846379 172.182617188 506.002929688 c 4
495.012695312 105.314453125 m 1
 37.0419921875 105.771484375 l 1
 28.8134765625 212.759765625 l 1
 501.186523438 217.032226562 l 1
 495.012695312 105.314453125 l 1
EndSplineSet
EndChar

StartChar: cedilla
Encoding: 184 184 166
Width: 292
Flags: W
HStem: -256.312 76.4883<65.0768 175.993> -109.074 56.3467<154.435 175.361>
VStem: 178.936 83.5723<-173.926 -114.462>
LayerCount: 2
Fore
SplineSet
154.434570312 -52.7275390625 m 5
 211.148646709 -52.7275390625 262.5078125 -85.4601417007 262.5078125 -155.021484375 c 0
 262.5078125 -221.561215823 207.162550692 -256.3125 133.98828125 -256.3125 c 0
 61.4637087155 -256.3125 20 -217.001953125 20 -217.001953125 c 1
 49.431640625 -146.569335938 l 1
 49.431640625 -146.569335938 84.2144123434 -179.82421875 132.79296875 -179.82421875 c 0
 159.808948682 -179.82421875 178.935546875 -164.931345349 178.935546875 -145.287109375 c 0
 178.935546875 -115.892080319 150.791868222 -109.07421875 126.42578125 -109.07421875 c 0
 94.845725405 -109.07421875 73.79296875 -113.5546875 73.79296875 -113.5546875 c 1
 94.775390625 19.1640625 l 1
 165 15 l 5
 154.434570312 -52.7275390625 l 5
EndSplineSet
EndChar

StartChar: I.ss01
Encoding: 65538 -1 167
Width: 617
Flags: W
HStem: -5 138<30 113.519> 2 138<458.344 587> 591 138<30 145.712> 598 138<499.414 577>
VStem: 170.658 270.796<147.919 582.742>
LayerCount: 2
Fore
SplineSet
30 729 m 1xa8
 577 736 l 1
 577 598 l 1
 436.764648438 585.34765625 l 1
 441.454101562 147.918945312 l 1
 587 140 l 1
 587 2 l 1x58
 30 -5 l 1
 30 133 l 1
 170.658203125 144.7890625 l 1
 166.50390625 582.7421875 l 1
 30 591 l 1
 30 729 l 1xa8
EndSplineSet
EndChar

StartChar: guilsinglleft
Encoding: 8249 8249 168
Width: 297
Flags: W
VStem: 20 268.986
LayerCount: 2
Fore
SplineSet
235.1015625 579.78125 m 1
 288.986328125 529.14453125 l 1
 131.099609375 352.305664062 l 1
 275.420898438 168.888671875 l 1
 224.323242188 123.6953125 l 1
 25.65625 306.668945312 l 1
 20 385.291992188 l 1
 235.1015625 579.78125 l 1
EndSplineSet
EndChar

StartChar: guilsinglright
Encoding: 8250 8250 169
Width: 297
Flags: W
VStem: 10 268.986
LayerCount: 2
Fore
SplineSet
63.884765625 579.78125 m 1
 278.986328125 385.291992188 l 1
 273.330078125 306.668945312 l 1
 74.6630859375 123.6953125 l 1
 23.5654296875 168.888671875 l 1
 167.88671875 352.305664062 l 1
 10 529.14453125 l 1
 63.884765625 579.78125 l 1
EndSplineSet
EndChar

StartChar: uni20BF
Encoding: 8383 8383 170
Width: 717
Flags: W
HStem: 46.3506 185.946<347.601 440.882> 326.258 92.7041<301.667 493.727> 514.923 175.946<338.376 434.037>
VStem: 245.25 97.3262<29.2675 77.8955> 259.662 74.2129<643.205 677.323> 389.242 82.7285<641.987 687.052> 501.93 165.803<431.704 558.904> 511.93 175.803<169.662 303.612>
LayerCount: 2
Fore
SplineSet
505.302734375 -105.328125 m 1xe4
 398.54296875 -110.564453125 l 1
 390.97265625 97.3623046875 l 1
 478.8359375 92.4931640625 l 1
 505.302734375 -105.328125 l 1xe4
334.0625 -114.212890625 m 1
 222.1328125 -102.298828125 l 1
 245.25 86.4091796875 l 1
 342.576171875 77.8955078125 l 1xf4
 334.0625 -114.212890625 l 1
471.970703125 637.122070312 m 1
 389.2421875 641.987304688 l 1
 392.943359375 845.163085938 l 1
 500.00390625 837.078125 l 1
 471.970703125 637.122070312 l 1
333.875 643.205078125 m 1xec
 259.662109375 631.037109375 l 1
 227.732421875 842.163085938 l 1
 340.875 850.030273438 l 1
 333.875 643.205078125 l 1xec
172 544 m 1
 292 556 l 1
 304 200 l 1
 148 206 l 1
 172 544 l 1
344.73828125 690.869140625 m 0
 550.929961873 690.869140625 667.732421875 620.296743946 667.732421875 497.51171875 c 0xe6
 667.732421875 398.082051184 573.955078125 370.609375 573.955078125 370.609375 c 1
 573.955078125 370.609375 687.732421875 342.112041296 687.732421875 224 c 0
 687.732421875 115.323435259 576.444051811 46.3505859375 374.73828125 46.3505859375 c 0
 164.483170071 46.3505859375 30 92.236328125 30 92.236328125 c 1
 51.26171875 271.956054688 l 1
 51.26171875 271.956054688 229.566660492 232.296875 377.58203125 232.296875 c 0
 479.466762239 232.296875 511.9296875 252.177355941 511.9296875 279.272460938 c 0xe5
 511.9296875 309.295330638 478.900704579 326.2578125 405.28515625 326.2578125 c 0
 284.376318985 326.2578125 206.0390625 318.961914062 206.0390625 318.961914062 c 5
 206.0390625 430.2578125 l 1
 206.0390625 430.2578125 272.581268701 418.961914062 375.28515625 418.961914062 c 0
 462.70648486 418.961914062 501.9296875 426.693306819 501.9296875 462.947265625 c 0xe6
 501.9296875 492.926326666 469.466762239 514.922851562 367.58203125 514.922851562 c 0
 228.638444569 514.922851562 61.26171875 455.263671875 61.26171875 455.263671875 c 1
 20 634.983398438 l 1
 20 634.983398438 146.681125599 690.869140625 344.73828125 690.869140625 c 0
EndSplineSet
EndChar

StartChar: dagger
Encoding: 8224 8224 172
Width: 472
Flags: W
HStem: 445.022 106.988<33.2285 439.199> 752.745 20G<166.564 304.384>
VStem: 166 138.384<524.705 771.312> 188.999 100.759<-40.9277 205.832>
LayerCount: 2
Fore
SplineSet
439.19921875 444.565429688 m 1xc0
 33.228515625 445.022460938 l 1
 30 552.010742188 l 1
 442.373046875 556.283203125 l 1
 439.19921875 444.565429688 l 1xc0
304.383789062 771.3125 m 5xe0
 289.7578125 -40.927734375 l 5
 188.999023438 -42.2080078125 l 5xd0
 166 772.745117188 l 5
 304.383789062 771.3125 l 5xe0
EndSplineSet
EndChar

StartChar: daggerdbl
Encoding: 8225 8225 173
Width: 472
Flags: W
HStem: 265.022 96.9883<36.2285 436.199> 465.022 106.988<33.2285 439.199> 752.745 20G<166.564 304.384>
VStem: 166 138.384<524.705 771.312> 188.999 100.759<-40.9277 205.832>
LayerCount: 2
Fore
SplineSet
304.383789062 771.3125 m 5xf0
 289.7578125 -40.927734375 l 5
 188.999023438 -42.2080078125 l 5xe8
 166 772.745117188 l 5
 304.383789062 771.3125 l 5xf0
436.19921875 264.565429688 m 1
 36.228515625 265.022460938 l 1
 33 362.010742188 l 1
 439.373046875 366.283203125 l 1
 436.19921875 264.565429688 l 1
439.19921875 464.565429688 m 1
 33.228515625 465.022460938 l 1
 30 572.010742188 l 1
 442.373046875 576.283203125 l 1
 439.19921875 464.565429688 l 1
EndSplineSet
EndChar

StartChar: uni2116
Encoding: 8470 8470 174
Width: 1264
Flags: W
HStem: 146 124<814 1057.33> 152 130<986.667 1230> 328.745 137.391<954.442 1086.8> 603.333 135.659<954.465 1089.2> 724.333 20G<57.1895 331.137>
VStem: 50 234.508<-0.764648 416.009> 57.1895 223.848<14.4356 416.009> 502.273 254.953<360.654 728.384> 509.607 248.146<342.728 718.457> 814.977 114.266<491.368 578.687> 1111.61 116.392<489.83 581.363>
LayerCount: 2
Fore
SplineSet
814.9765625 530.541992188 m 4x3060
 814.9765625 662.912027335 907.665873013 738.9921875 1023.05957031 738.9921875 c 4
 1148.96332683 738.9921875 1228 641.51316195 1228 537.197265625 c 4
 1228 404.827157814 1135.31194698 328.745117188 1019.91699219 328.745117188 c 4
 894.014459645 328.745117188 814.9765625 426.226639133 814.9765625 530.541992188 c 4x3060
929.2421875 536.002929688 m 4
 929.2421875 501.921976189 963.25214373 466.135742188 1018.60449219 466.135742188 c 4
 1080.28673089 466.135742188 1111.60839844 501.714007796 1111.60839844 535.75390625 c 4
 1111.60839844 569.444777877 1082.14856188 603.333007812 1024.44921875 603.333007812 c 4
 960.304655499 603.333007812 929.2421875 569.651281605 929.2421875 536.002929688 c 4
810 270 m 5xa060
 1234 282 l 5
 1230 152 l 5x6060
 814 146 l 5
 810 270 l 5xa060
50 -5.064453125 m 1x2c60
 57.189453125 734.931640625 l 1
 321.783203125 744.333007812 l 1
 509.607421875 342.727539062 l 1x2ae0
 502.2734375 736.383789062 l 1
 757.2265625 728.383789062 l 1x2960
 757.75390625 -4.40625 l 1
 499.9765625 -0.873046875 l 1
 281.037109375 416.008789062 l 1x2ae0
 284.5078125 -0.7646484375 l 1
 50 -5.064453125 l 1x2c60
EndSplineSet
EndChar

StartChar: uni20BA
Encoding: 8378 8378 175
Width: 807
Flags: W
HStem: -10 185.426<310.802 519.313> 711.169 20G<97.6406 408.201> 711.169 20G<97.6406 408.201>
VStem: 88 312.752<181.84 542.108> 97.6406 310.842<233.747 729.898>
LayerCount: 2
Fore
SplineSet
516 412 m 5x80
 521 328 l 5
 24 217 l 5
 19 290 l 5
 516 412 l 5x80
514 553 m 5
 518 457 l 5
 18 333 l 5
 10 407 l 5
 514 553 l 5
777.06640625 349.219726562 m 1
 777.06640625 349.219726562 764.232609828 -10 396 -10 c 0
 225.603403572 -10 88 44.296875 88 44.296875 c 1xb0
 97.640625 729.8984375 l 1
 408.482421875 731.168945312 l 1xa8
 400.751953125 181.83984375 l 1xb0
 400.751953125 181.83984375 414.751132743 175.42578125 453.435546875 175.42578125 c 0
 586.105224268 175.42578125 600.666015625 372.813476562 600.666015625 372.813476562 c 1
 777.06640625 349.219726562 l 1
EndSplineSet
EndChar

StartChar: uni20B5
Encoding: 8373 8373 176
Width: 722
Flags: W
HStem: 25.3154 186.107<291.529 535.656> 511.086 188.996<271.922 520.038>
VStem: 30 284.11<274.925 450.996>
LayerCount: 2
Fore
SplineSet
343 90 m 25
 421 80 l 25
 434 -118 l 25
 322 -118 l 25
 343 90 l 25
340 667 m 25
 320 855 l 25
 438 859 l 25
 424 677 l 25
 340 667 l 25
396.112304688 25.3154296875 m 0
 186.945245788 25.3154296875 30 151.513603363 30 371.081054688 c 0
 30 541.154867463 154.068586954 700.08203125 389.776367188 700.08203125 c 0
 589.788881854 700.08203125 680.428710938 564.427734375 680.428710938 564.427734375 c 1
 575.184570312 446.135742188 l 1
 575.184570312 446.135742188 527.308581424 511.0859375 447.780273438 511.0859375 c 0
 355.345022489 511.0859375 314.110351562 447.848469128 314.110351562 361.331054688 c 4
 314.110351562 272.192112942 365.021679932 211.422851562 468.4921875 211.422851562 c 0
 560.77266831 211.422851562 618.895507812 283.73828125 618.895507812 283.73828125 c 1
 702.4296875 152.814453125 l 1
 702.4296875 152.814453125 608.550439451 25.3154296875 396.112304688 25.3154296875 c 0
EndSplineSet
EndChar

StartChar: uni20B2
Encoding: 8370 8370 177
Width: 745
Flags: W
HStem: -118 337.713<322 434>
VStem: 30 172.3<285.403 407.797>
LayerCount: 2
Fore
SplineSet
409.490234375 700.869140625 m 0
 597.12109375 700.869140625 664.227539062 624.983398438 664.227539062 624.983398438 c 1
 602.96875 431.34765625 l 1
 602.96875 431.34765625 518.394075879 474.922851562 396.646484375 474.922851562 c 0
 275.24656513 474.922851562 202.299804688 422.318637858 202.299804688 350.620117188 c 0
 202.299804688 278.117167209 266.287306189 219.712890625 385.444335938 219.712890625 c 4
 510.863620433 219.712890625 549.95703125 310.779296875 549.95703125 310.779296875 c 5
 590.724609375 174.991210938 l 1
 590.724609375 174.991210938 514.303583462 26.3505859375 338 26.3505859375 c 0
 135.271484375 26.3505859375 30 192.242092768 30 365.51171875 c 0
 30 578.469306192 194.272169863 700.869140625 409.490234375 700.869140625 c 0
715.780273438 377.715820312 m 1
 684.146484375 37.400390625 l 1
 521.65625 43.96875 l 1
 493.557617188 361.782226562 l 1
 715.780273438 377.715820312 l 1
343 90 m 1
 421 80 l 1
 434 -118 l 1
 322 -118 l 1
 343 90 l 1
340 667 m 1
 320 855 l 1
 438 859 l 1
 424 677 l 1
 340 667 l 1
EndSplineSet
EndChar

StartChar: uni20B8
Encoding: 8376 8376 178
Width: 722
Flags: W
HStem: 358.78 146.118<180.073 256.008 449.92 674.984> 565 163<305.687 687.187> 577 158<36.1865 414.687>
VStem: 256.008 193.912<167.167 358.78> 258.885 204.162<-0.548828 191.065>
LayerCount: 2
Fore
SplineSet
36.1865234375 735 m 25xa0
 692.186523438 728 l 25
 687.186523438 565 l 25xc0
 33.1865234375 577 l 25
 36.1865234375 735 l 25xa0
34.1865234375 511.399414062 m 5
 682.798828125 504.8984375 l 5
 674.984375 353.803710938 l 5
 449.919921875 358.780273438 l 5x90
 463.046875 -0.548828125 l 1
 258.884765625 -1.5478515625 l 1x88
 256.0078125 358.780273438 l 5x90
 30 364.802734375 l 5
 34.1865234375 511.399414062 l 5
EndSplineSet
EndChar

StartChar: uni20B4
Encoding: 8372 8372 179
Width: 817
Flags: W
HStem: -12.5732 159.843<364.262 588.377> 241.987 93.8789<31.5996 489.08> 250.323 97.0527<326.333 783.813> 392.781 92.5537<30.6582 666.349> 395.29 98.3828<151.624 786.371> 600.993 143.977<248.649 464.467>
VStem: 93.9863 255.485<163.902 237.782> 479.631 225.475<380.874 585.944>
LayerCount: 2
Fore
SplineSet
30 485.334960938 m 5x97
 787.97265625 493.672851562 l 5
 786.37109375 395.290039062 l 5x8f
 30.658203125 392.78125 l 5
 30 485.334960938 l 5x97
787.97265625 250.323242188 m 5xa7
 30 241.987304688 l 5
 31.599609375 335.866210938 l 5xc7
 783.813476562 347.375976562 l 5
 787.97265625 250.323242188 l 5xa7
402.383789062 744.969726562 m 0
 623.557617188 744.969726562 705.10546875 634.254882812 705.10546875 523.4296875 c 0
 705.10546875 248.478515625 349.471679688 322.747070312 349.471679688 201.07421875 c 0
 349.471679688 160.862304688 390.931640625 147.26953125 455.111328125 147.26953125 c 0
 575.641601562 147.26953125 684.044921875 206.584960938 684.044921875 206.584960938 c 1
 730.114257812 55.404296875 l 1
 730.114257812 55.404296875 619.438476562 -12.5732421875 421.081054688 -12.5732421875 c 0
 213.803710938 -12.5732421875 93.986328125 60.7578125 93.986328125 220.151367188 c 0
 93.986328125 505.413085938 479.630859375 439.095703125 479.630859375 551.596679688 c 0
 479.630859375 579.772460938 456.772460938 600.993164062 372.975585938 600.993164062 c 0
 251.146484375 600.993164062 160.451171875 537.153320312 160.451171875 537.153320312 c 1
 105.241210938 687.719726562 l 1
 105.241210938 687.719726562 212.416992188 744.969726562 402.383789062 744.969726562 c 0
EndSplineSet
EndChar

StartChar: dong
Encoding: 8363 8363 180
Width: 668
Flags: W
HStem: -9.54297 146.989<184.857 594.144> 0 131.717<36.1709 445.457> 178.068 127.858<213.99 351.302> 421.115 114.777<212.12 347.855> 576.488 88.5039<217.857 635.828> 723.812 20G<341.385 568.549>
VStem: 30.1309 164.472<324.655 401.162> 345.297 222.686<525.526 740.547>
LayerCount: 2
Fore
SplineSet
635.828125 576.48828125 m 1x3f
 217.857421875 573.790039062 l 1
 213.62890625 659.094726562 l 1
 638 664.9921875 l 1
 635.828125 576.48828125 l 1x3f
36.1708984375 0 m 1x7f
 30 131.716796875 l 1x7f
 602.37109375 137.446289062 l 1
 594.143554688 -9.54296875 l 1xbf
 36.1708984375 0 l 1x7f
300.400390625 421.115234375 m 4
 235.583055061 421.115234375 194.602539062 400.916276232 194.602539062 365.000976562 c 0
 194.602539062 322.29704737 237.44999473 305.926757812 297.736328125 305.926757812 c 0
 326.508120621 305.926757812 353.5078125 311.276367188 353.5078125 311.276367188 c 1
 350.462890625 417.0546875 l 5
 350.462890625 417.0546875 328.904183978 421.115234375 300.400390625 421.115234375 c 4
345.296875 525.526367188 m 1
 341.384765625 740.546875 l 1
 567.982421875 743.811523438 l 1
 583.2109375 206.375 l 1
 583.2109375 206.375 486.456054688 178.068359375 318.456054688 178.068359375 c 0
 135.079231435 178.068359375 30.130859375 247.502302195 30.130859375 360.533203125 c 0
 30.130859375 492.037832405 139.261144452 535.892578125 247.221679688 535.892578125 c 0
 298.852279852 535.892578125 345.296875 525.526367188 345.296875 525.526367188 c 1
EndSplineSet
EndChar

StartChar: partialdiff
Encoding: 8706 8706 181
Width: 696
Flags: W
HStem: -13.5732 186.54<300.572 427.772> 352.552 142.621<221.658 420.447> 576.495 168.472<207.34 378.354>
VStem: 30 236.418<208.404 317.851> 462.166 204.82<207.613 484.195>
LayerCount: 2
Fore
SplineSet
340.390625 744.966796875 m 0
 537.431728574 744.966796875 666.986328125 612.258558852 666.986328125 356.131835938 c 0
 666.986328125 100.656434771 514.380859375 -13.5732421875 325.58984375 -13.5732421875 c 0
 148.761326486 -13.5732421875 30 98.1835301297 30 252.360351562 c 0
 30 414.143174161 156.931203686 495.172851562 286.384765625 495.172851562 c 0
 376.298085167 495.172851562 424.158203125 471.92578125 424.158203125 471.92578125 c 5
 424.158203125 471.92578125 419.739141918 576.495117188 310.8984375 576.495117188 c 0
 236.986442132 576.495117188 187.4609375 545.155273438 187.4609375 545.155273438 c 1
 131.251953125 697.717773438 l 1
 131.251953125 697.717773438 198.063534103 744.966796875 340.390625 744.966796875 c 0
462.166015625 263.84765625 m 0
 462.166015625 308.177734376 430.526083543 352.551757812 368.0390625 352.551757812 c 0
 300.876644379 352.551757812 266.41796875 307.961914063 266.41796875 263.631835938 c 0
 266.41796875 219.303710937 300.29855023 172.966796875 366.2109375 172.966796875 c 0
 426.038758851 172.966796875 462.166015625 219.516601562 462.166015625 263.84765625 c 0
EndSplineSet
EndChar

StartChar: approxequal
Encoding: 8776 8776 182
Width: 540
VWidth: 999
Flags: W
HStem: 183 110<313.594 461.047> 260 99<109.884 237.361> 353 110<303.457 425.784> 420 113<94.1454 243.911>
LayerCount: 2
Fore
SplineSet
529 246 m 5x80
 529 246 476.544921875 183 380 183 c 4x80
 292.461914062 183 238.615234375 260 172 260 c 4
 116.23046875 260 72 204 72 204 c 5
 17 267 l 5
 17 267 74.716796875 359 163 359 c 4x40
 257.606445312 359 323.375976562 293 391 293 c 4
 442.515625 293 476 326 476 326 c 5
 529 246 l 5x80
525 453 m 5
 525 453 473.953125 353 380 353 c 4x20
 292.461914062 353 238.615234375 420 172 420 c 4
 116.23046875 420 72 384 72 384 c 5
 11 465 l 5
 11 465 71.0888671875 533 163 533 c 4x10
 249.307617188 533 309.307617188 463 371 463 c 4x20
 422.515625 463 456 515 456 515 c 5
 525 453 l 5
EndSplineSet
EndChar

StartChar: integral
Encoding: 8747 8747 183
Width: 734
Flags: W
HStem: -12.5732 169.843<63.0874 293.166> 580.993 163.977<397.815 688.217>
LayerCount: 2
Fore
SplineSet
537.73046875 744.969726562 m 0
 650.979833311 744.969726562 714.873046875 717.719726562 714.873046875 717.719726562 c 1
 685.663085938 567.153320312 l 1
 685.663085938 567.153320312 656.420043924 580.993164062 617.138671875 580.993164062 c 0
 531.24699168 580.993164062 525.962603408 524.586280896 496.127929688 282 c 0
 468.346969162 56.1124988751 387.29977206 -12.5732421875 199.033203125 -12.5732421875 c 0
 84.1181576128 -12.5732421875 20 28.404296875 20 28.404296875 c 5
 56.0693359375 182.584960938 l 5
 56.0693359375 182.584960938 93.4455178535 157.26953125 135.002929688 157.26953125 c 0
 199.182372392 157.26953125 215.343393769 226.482386258 240.642578125 394 c 0
 270.786314419 593.595635264 257.900521935 744.969726562 537.73046875 744.969726562 c 0
EndSplineSet
EndChar

StartChar: uni2215
Encoding: 8725 8725 184
Width: 535
Flags: W
HStem: 726.315 20G<382.263 432.39>
LayerCount: 2
Fore
SplineSet
392.579101562 746.315429688 m 5
 525.767578125 679.405273438 l 5
 106.299804688 -46.2216796875 l 5
 10 4.626953125 l 5
 392.579101562 746.315429688 l 5
EndSplineSet
EndChar

StartChar: Delta
Encoding: 8710 8710 186
Width: 776
Flags: W
HStem: -0.573242 249.206<271.913 511.902> 712.033 20G<239.791 529.004> 712.033 20G<239.791 529.004>
LayerCount: 2
Fore
SplineSet
271.913085938 248.6328125 m 1x80
 511.90234375 249.689453125 l 1
 390.438476562 535.478515625 l 5
 271.913085938 248.6328125 l 1x80
247.612304688 732.033203125 m 5xc0
 529.00390625 729.415039062 l 5
 756.836914062 153.2265625 l 1
 729.708984375 1.107421875 l 1
 36.6220703125 -0.5732421875 l 1
 20 149.987304688 l 1
 247.612304688 732.033203125 l 5xc0
EndSplineSet
EndChar

StartChar: notequal
Encoding: 8800 8800 187
Width: 500
Flags: W
HStem: 201.987 123.879<37.6133 291.962> 210.323 127.053<201.478 455.827> 382.781 122.554<39.6719 395.314> 385.29 128.383<104.686 462.385>
LayerCount: 2
Fore
SplineSet
330 636 m 29x00
 449 570 l 29
 159 110 l 25
 74 152 l 25
 330 636 l 29x00
EndSplineSet
Refer: 83 61 N 1 0 0 1 0 0 2
EndChar

StartChar: lessequal
Encoding: 8804 8804 188
Width: 500
Flags: W
HStem: 127.3 108.504<37.043 465.014>
LayerCount: 2
Fore
SplineSet
465.013671875 127.299804688 m 1
 37.04296875 124.6015625 l 1
 28.814453125 239.90625 l 1
 471.185546875 235.803710938 l 1
 465.013671875 127.299804688 l 1
412.608398438 632.78125 m 5
 444.493164062 519.14453125 l 5
 166.606445312 452.305664062 l 1
 451.927734375 385.888671875 l 5
 409.830078125 273.6953125 l 5
 51.1630859375 386.668945312 l 1
 45.5068359375 505.291992188 l 1
 412.608398438 632.78125 l 5
EndSplineSet
EndChar

StartChar: greaterequal
Encoding: 8805 8805 189
Width: 500
Flags: W
HStem: 127.3 108.504<34.9863 462.957>
LayerCount: 2
Fore
SplineSet
34.986328125 127.299804688 m 1
 28.814453125 235.803710938 l 1
 471.185546875 239.90625 l 1
 462.95703125 124.6015625 l 1
 34.986328125 127.299804688 l 1
87.3916015625 632.78125 m 5
 454.493164062 505.291992188 l 1
 448.836914062 386.668945312 l 1
 90.169921875 273.6953125 l 5
 48.072265625 385.888671875 l 5
 333.393554688 452.305664062 l 1
 55.5068359375 519.14453125 l 5
 87.3916015625 632.78125 l 5
EndSplineSet
EndChar

StartChar: radical
Encoding: 8730 8730 190
Width: 850
Flags: W
LayerCount: 2
Fore
SplineSet
276 508 m 25
 382 298 l 25
 556 756 l 25
 840 709 l 25
 820 557 l 29
 654 575 l 29
 469 -3 l 25
 280 -1 l 25
 154 313 l 25
 26 287 l 25
 10 446 l 25
 276 508 l 25
EndSplineSet
EndChar

StartChar: summation
Encoding: 8721 8721 191
Width: 702
Flags: W
HStem: -154.775 194.156<363.952 672.025> 518.934 208.965<359.776 665.69> 716.089 20G<42.842 665.69>
LayerCount: 2
Back
SplineSet
44.3955078125 736.088867188 m 5
 605.690429688 727.8984375 l 5
 607.966796875 514.803710938 l 5
 359.776367188 518.93359375 l 5
 460.985351562 383 l 5
 456.985351562 313 l 5
 363.952148438 199.380859375 l 5
 612.025390625 196.96484375 l 5
 612.852539062 5.224609375 l 5
 36.9853515625 -7.2470703125 l 5
 30 108 l 5
 243.985351562 353 l 5
 37.4755859375 647 l 5
 44.3955078125 736.088867188 l 5
EndSplineSet
Fore
SplineSet
44.3955078125 736.088867188 m 1xa0
 665.690429688 727.8984375 l 5
 667.966796875 514.803710938 l 5
 359.776367188 518.93359375 l 1xc0
 520.985351562 313 l 5
 516.985351562 243 l 5
 363.952148438 39.380859375 l 1
 672.025390625 36.96484375 l 5
 672.852539062 -154.775390625 l 5
 36.9853515625 -167.247070312 l 1
 30 -52 l 1
 303.985351562 283 l 5
 37.4755859375 647 l 1
 44.3955078125 736.088867188 l 1xa0
EndSplineSet
EndChar

StartChar: product
Encoding: 8719 8719 192
Width: 777
Flags: W
HStem: 462 269.976<241.402 532> 469.009 260.923<241.037 531.635>
VStem: 50 184.508<-160.064 469.009> 57.1895 183.848<-136.612 469.009> 534.977 192.777<-155.406 462>
LayerCount: 2
Back
SplineSet
50 0.935546875 m 1
 57.189453125 729.931640625 l 1
 727.2265625 731.975585938 l 1
 727.75390625 5.59375 l 1
 534.9765625 -0.873046875 l 1
 532 462 l 5
 241.037109375 469.008789062 l 5
 234.5078125 -1.7646484375 l 1
 50 0.935546875 l 1
EndSplineSet
Fore
SplineSet
50 -160.064453125 m 1x68
 57.189453125 729.931640625 l 1x58
 727.2265625 731.975585938 l 1
 727.75390625 -155.40625 l 1
 534.9765625 -161.873046875 l 1
 532 462 l 5x98
 241.037109375 469.008789062 l 5x58
 234.5078125 -162.764648438 l 1
 50 -160.064453125 l 1x68
EndSplineSet
EndChar

StartChar: emptyset
Encoding: 8709 8709 193
Width: 835
Flags: W
HStem: -14.6885 93.8867<305.364 527.495> 654.998 91.084<303.006 544.398>
VStem: 35 95.0693<263.278 478.79> 701.752 98.5098<255.843 478.821>
LayerCount: 2
Fore
SplineSet
649.0625 795.614257812 m 5
 759.4375 712.12890625 l 5
 156.770507812 -43.8388671875 l 5
 77.8642578125 18.8310546875 l 5
 649.0625 795.614257812 l 5
35 360.314453125 m 0
 35 605.284566003 206.572904558 746.08203125 420.172851562 746.08203125 c 0
 653.677857202 746.08203125 800.26171875 564.934114168 800.26171875 371.081054688 c 0
 800.26171875 126.111862359 628.690706884 -14.6884765625 415.087890625 -14.6884765625 c 0
 181.585754949 -14.6884765625 35 166.463269815 35 360.314453125 c 0
130.069335938 369.211914062 m 0
 130.069335938 227.744326506 237.701684003 79.1982421875 412.876953125 79.1982421875 c 0
 604.465214553 79.1982421875 701.751953125 227.19721942 701.751953125 368.796875 c 0
 701.751953125 511.479549352 607.403963954 654.998046875 422.616210938 654.998046875 c 0
 225.516361472 654.998046875 130.069335938 512.034150985 130.069335938 369.211914062 c 0
EndSplineSet
EndChar

StartChar: uni2117
Encoding: 8471 8471 194
Width: 835
Flags: W
HStem: -14.6885 93.8867<305.364 527.495> 295.964 83.8887<377.396 476.917> 459.947 94.9292<369.284 440.594> 654.998 91.084<303.006 535.079>
VStem: 35 95.0693<263.278 478.79> 285.844 97.2988<183.398 249.276> 452.534 132.236<393.53 448.983> 701.752 98.5098<255.843 478.821>
LayerCount: 2
Fore
SplineSet
35 360.314453125 m 0
 35 605.284566003 206.572904558 746.08203125 420.172851562 746.08203125 c 0
 653.677857202 746.08203125 800.26171875 564.934114168 800.26171875 371.081054688 c 0
 800.26171875 126.111862359 628.690706884 -14.6884765625 415.087890625 -14.6884765625 c 0
 181.585754949 -14.6884765625 35 166.463269815 35 360.314453125 c 0
130.069335938 369.211914062 m 0
 130.069335938 227.744326506 237.701684003 79.1982421875 412.876953125 79.1982421875 c 0
 604.465214553 79.1982421875 701.751953125 227.19721942 701.751953125 368.796875 c 0
 701.751953125 511.479549352 607.403963954 654.998046875 422.616210938 654.998046875 c 0
 225.516361472 654.998046875 130.069335938 512.034150985 130.069335938 369.211914062 c 0
EndSplineSet
Refer: 17 80 N 0.5 0 0 0.5 253.25 182.97 2
EndChar

StartChar: uni2031
Encoding: 8241 8241 195
Width: 1480
Flags: W
HStem: -10.1504 127.56<922.613 1012.12> -10.1504 103.75<581.332 674.965 1230.52 1308.32> 217.282 128.765<582.957 674.87 1219.17 1318.42> 234.654 111.393<925.31 1012.3> 375.112 110.277<185.645 274.692> 607.409 123.895<182.871 276.055> 726.315 20G<543.62 593.748>
VStem: 30 139.554<499.828 592.967> 288.503 99.7402<499.864 594.815> 464.636 103.966<106.702 202.527> 779.18 43.6973<74.6973 261.201> 1093.76 43.666<74.6953 261.201> 1327.69 124.313<114.601 209.552>
LayerCount: 2
Fore
SplineSet
1093.75683594 165.490234375 m 0x49f8
 1093.75683594 280.143554687 1174.06054688 346.041015625 1274.0390625 346.041015625 c 0
 1383.36621094 346.041015625 1452 261.195312499 1452 170.399414062 c 0
 1452 55.7470703122 1371.69628906 -10.150390625 1271.71777344 -10.150390625 c 0
 1162.390625 -10.150390625 1093.75683594 74.695312499 1093.75683594 165.490234375 c 0x49f8
1208.73730469 161.875976562 m 0
 1208.73730469 131.757812499 1230.95117187 100.126953125 1267.09960938 100.126953125 c 0
 1307.37109375 100.126953125 1327.68652344 131.610351562 1327.68652344 161.731445312 c 0
 1327.68652344 191.851562499 1309.37109375 222.146484375 1270.67089844 222.146484375 c 0
 1228.9453125 222.146484375 1208.73730469 191.996093749 1208.73730469 161.875976562 c 0
30 550.752929688 m 0
 30 665.40625 110.303710938 731.303710938 210.282226562 731.303710938 c 0x0df8
 319.609375 731.303710938 388.243164062 646.458007812 388.243164062 555.662109375 c 0
 388.243164062 441.009765625 307.939453125 375.112304688 207.9609375 375.112304688 c 0
 98.6337890625 375.112304688 30 459.958007812 30 550.752929688 c 0
169.553710938 547.138671875 m 0
 169.553710938 517.020507812 191.767578125 485.389648438 227.916015625 485.389648438 c 0
 268.1875 485.389648438 288.502929688 516.873046875 288.502929688 546.994140625 c 0
 288.502929688 577.114257812 270.1875 607.409179688 231.487304688 607.409179688 c 0
 189.76171875 607.409179688 169.553710938 577.258789062 169.553710938 547.138671875 c 0
822.876953125 170.405273438 m 0
 822.876953125 55.7509765625 742.57421875 -10.150390625 642.599609375 -10.150390625 c 0
 533.26953125 -10.150390625 464.635742188 74.697265625 464.635742188 165.491210938 c 0
 464.635742188 280.145507812 544.940429688 346.046875 644.920898438 346.046875 c 0x69f8
 754.24609375 346.046875 822.876953125 261.201171875 822.876953125 170.405273438 c 0
689.173828125 154.692382812 m 0
 689.173828125 185.224414062 669.102716067 217.282226562 630.015625 217.282226562 c 0
 589.446844529 217.282226562 568.6015625 185.369919714 568.6015625 154.83984375 c 0
 568.6015625 124.309960651 588.19600026 93.599609375 626.3984375 93.599609375 c 0
 668.05284846 93.599609375 689.173828125 124.162402345 689.173828125 154.692382812 c 0
1137.42285156 170.405273438 m 0
 1137.42285156 55.7509765625 1057.12011719 -10.150390625 957.14453125 -10.150390625 c 0
 847.814453125 -10.150390625 779.1796875 74.697265625 779.1796875 165.491210938 c 0
 779.1796875 280.145507812 859.483398438 346.046875 959.463867188 346.046875 c 0x99f8
 1068.79101562 346.046875 1137.42285156 261.201171875 1137.42285156 170.405273438 c 0
1025.39746094 175.32421875 m 0
 1025.39746094 204.265913206 1005.09395373 234.654296875 969.317382812 234.654296875 c 0
 930.862404123 234.654296875 911.104492188 204.403322473 911.104492188 175.461914062 c 0
 911.104492188 146.520361471 929.676726369 117.409179688 965.888671875 117.409179688 c 0
 1005.99391134 117.409179688 1025.39746094 146.380322151 1025.39746094 175.32421875 c 0
EndSplineSet
Refer: 76 8260 N 1 0 0 1 327 0 2
EndChar

StartChar: uni20AD
Encoding: 8365 8365 196
Width: 823
Flags: W
HStem: 305.771 106.988<37.042 373.296> 315.314 111.718<386.704 725.013> 733.047 20G<130.054 312.417>
VStem: 130 182.417<409.549 751.601> 132.046 164.813<-4.50488 333.437>
LayerCount: 2
Fore
SplineSet
725.012695312 315.314453125 m 1x60
 37.0419921875 305.771484375 l 1
 28.8134765625 412.759765625 l 1xa0
 731.186523438 427.032226562 l 1
 725.012695312 315.314453125 l 1x60
296.859375 -8.6142578125 m 1x28
 132.045898438 -4.5048828125 l 1x28
 130 753.046875 l 1
 312.416992188 751.600585938 l 1x30
 296.859375 -8.6142578125 l 1x28
566.432617188 763.40625 m 1
 733.29296875 699.567382812 l 1
 678.227213517 563.365872935 612.330135812 467.793927501 488.059570312 367.861328125 c 5
 587.397417672 285.343561025 669.345813598 233.620661002 789.461914062 180.127929688 c 1
 671.158203125 -39.5224609375 l 1
 476.115434518 69.8717208045 330.444476095 218.896628092 199.48828125 379.731445312 c 1
 356.842063831 431.042692024 466.820862977 537.044420287 566.432617188 763.40625 c 1
EndSplineSet
EndChar

StartChar: uni20BC
Encoding: 8380 8380 197
Width: 874
Flags: W
HStem: -1.28027 21G<367.613 509> 438.995 179.997<220.012 655.559> 710.673 20G<345.871 523.626> 710.673 20G<345.871 523.626>
VStem: 30 241.303<1.93105 355.611> 345.242 178.384<507.895 729.24> 368.241 140.759<0 221.498> 605.82 238.487<29.3366 357.559>
LayerCount: 2
Fore
SplineSet
523.625976562 729.240234375 m 5xdd
 509 0 l 5
 368.241210938 -1.2802734375 l 5xdb
 345.2421875 730.672851562 l 5
 523.625976562 729.240234375 l 5xdd
813.3203125 -18.4248046875 m 5
 587.716796875 7.7353515625 l 5
 587.716796875 7.7353515625 605.8203125 123.627196739 605.8203125 229.397460938 c 4
 605.8203125 360.971961918 563.533596248 438.995117188 438.258789062 438.995117188 c 4
 315.214389357 438.995117188 271.302734375 363.542796191 271.302734375 234.265625 c 0
 271.302734375 124.174577908 283.552734375 2.537109375 283.552734375 2.537109375 c 1
 48.048828125 -8.6953125 l 1
 48.048828125 -8.6953125 30 110.110055365 30 230.10546875 c 0
 30 423.782040301 124.809077347 618.9921875 447.37890625 618.9921875 c 4
 747.584689937 618.9921875 844.307617188 440.916504998 844.307617188 254.766601562 c 4
 844.307617188 120.625642283 813.3203125 -18.4248046875 813.3203125 -18.4248046875 c 5
EndSplineSet
EndChar

StartChar: uni20B9
Encoding: 8377 8377 198
Width: 752
Flags: W
HStem: 305 120<239.246 442.869> 603 135.992<109.246 378.176>
VStem: 425 191<458.808 609.132>
LayerCount: 2
Fore
SplineSet
52 536 m 1
 722 580 l 1
 716 474 l 1
 54 466 l 1
 52 536 l 1
30 687 m 1
 30 687 114.666992188 738.9921875 284 738.9921875 c 0
 521.142578125 738.9921875 616 637 616 492 c 0
 616 354.360351562 484.737304688 305 401 305 c 0
 378 305 349 309 349 309 c 1
 621 137 l 1
 445 -27 l 1
 119 277 l 1
 125 437 l 1
 125 437 205.491210938 425 273 425 c 0
 364.907226562 425 425 446.963867188 425 507 c 0
 425 581.263671875 357.817382812 603 249 603 c 0
 140 603 49 567 49 567 c 1
 30 687 l 1
EndSplineSet
EndChar

StartChar: uni20BE
Encoding: 8382 8382 199
Width: 812
Flags: W
HStem: -4 157<551.043 779> 19 134<30 150> 558 180.992<355.669 586.552>
VStem: 44 181<302.659 495.264> 247.834 105.76<669.327 841.146> 267.301 83.8633<365.455 535.142> 389.561 91.3262<364.922 505.575> 398.074 105.93<695.95 842.116>
LayerCount: 2
Fore
SplineSet
247.833984375 841.145507812 m 5x38
 353.59375 846.381835938 l 5x38
 351.1640625 365.455078125 l 5
 267.30078125 363.32421875 l 5x34
 247.833984375 841.145507812 l 5x38
398.07421875 850.030273438 m 5x31
 504.00390625 842.116210938 l 5x31
 480.88671875 359.408203125 l 5
 389.560546875 364.921875 l 5x32
 398.07421875 850.030273438 l 5x31
412 738.9921875 m 0
 761.104786748 738.9921875 791 416 791 416 c 1
 541 362 l 1
 541 362 537.956816406 558 378 558 c 0
 270.325195313 558 225 497.230769231 225 400 c 0
 225 261.801540018 353 152 353 152 c 1
 782 153 l 1x70
 779 -4 l 1xb0
 30 19 l 1
 30 155 l 1
 150 153 l 1x70
 150 153 44 242.06106906 44 418 c 0
 44 608.865257212 170.15339233 738.9921875 412 738.9921875 c 0
EndSplineSet
EndChar

StartChar: uni20A6
Encoding: 8358 8358 200
Width: 964
Flags: W
HStem: -0.873047 21G<576.225 819.754> 238.308 104.587<36 188 788 925> 388.775 122.294<44 188> 401.021 105.882<788 928> 724.333 10.0508G<149.19 425.507 653.02 819.241>
VStem: 44 144<388.775 511.069> 142 164.508<4.93555 366.009> 149.19 153.848<23.9085 366.009> 654.273 164.953<622.693 734.384> 788 140<238.308 342 438 506>
LayerCount: 2
Fore
SplineSet
188 239.665039062 m 1xcc
 30 240 l 1
 36 348 l 1
 188 347.022460938 l 1
 188 239.665039062 l 1xcc
788 238.307617188 m 1xc840
 788 342.89453125 l 1
 925 342 l 1
 931 238 l 1
 788 238.307617188 l 1xc840
188 388.775390625 m 1xec
 42 386 l 1
 44 512 l 1
 188 511.069335938 l 1
 188 388.775390625 l 1xec
788 401.020507812 m 1xd840
 788 506.90234375 l 1
 928 506 l 1
 934 404 l 1
 788 401.020507812 l 1xd840
EndSplineSet
Refer: 16 78 N 1 0 0 1 92 0 2
EndChar

StartChar: Omega
Encoding: 8486 8486 201
Width: 896
Flags: W
HStem: 0 155<31 190.25 705.75 865> 0 147<53.75 213 683 842.25> 485 253.992<360.242 537.267>
VStem: 76 208<287.448 412.46> 612 208<284.603 411.507>
LayerCount: 2
Fore
SplineSet
455 485 m 0x78
 353.920106027 485 284 429.398327709 284 326 c 0
 284 203.28125 426 166 426 166 c 1
 415 0 l 1
 30 0 l 1x78
 31 155 l 1xb8
 213 147 l 1
 213 147 76 219.858444036 76 404 c 0
 76 593.541015625 199.217773438 738.9921875 448 738.9921875 c 0
 696.782226562 738.9921875 820 593.541015625 820 402 c 0
 820 219.858444036 683 147 683 147 c 1x78
 865 155 l 1xb8
 866 0 l 1
 491 0 l 1
 480 166 l 1
 480 166 612 203.28125 612 326 c 4
 612 429.398327709 540.579398777 485 455 485 c 0x78
EndSplineSet
EndChar

StartChar: arrowleft
Encoding: 8592 8592 202
Width: 550
Flags: W
LayerCount: 2
Fore
SplineSet
153.5 414 m 1
 519.5 426 l 1
 520.5 286 l 1
 151.5 310 l 1
 153.5 414 l 1
233.5 589 m 1
 329.5 480 l 1
 163.5 356 l 1
 325.5 245 l 5
 233.5 132 l 5
 29.5 354 l 1
 233.5 589 l 1
EndSplineSet
EndChar

StartChar: estimated
Encoding: 8494 8494 206
Width: 787
Flags: W
HStem: -14.6846 116.107<326.857 576.052> 298.732 105.104<198.775 416.515> 382 31.6797<543 593.258> 611.086 128.996<295.149 495.703>
VStem: 174 90<298.732 594> 543 87<382 594>
LayerCount: 2
Fore
SplineSet
543 594 m 1xbc
 630 594 l 1
 630 382 l 1
 543 382 l 1
 543 594 l 1xbc
174 594 m 1
 264 594 l 1
 264 127 l 1
 174 127 l 1
 174 594 l 1
593.2578125 413.6796875 m 1
 586.806791193 539.317591453 522.837343374 611.0859375 397.780273438 611.0859375 c 0
 275.055980031 611.0859375 211.1675793 546.60180139 196.203125 403.836914062 c 1xdc
 593.2578125 413.6796875 l 1
416 -14.6845703125 m 0
 199.805664062 -14.6845703125 30 126.112876923 30 371.081054688 c 0
 30 561.832473293 157.517078802 740.08203125 399.776367188 740.08203125 c 0
 674.480569824 740.08203125 760.832037988 531.397460938 767 317 c 1
 198.775390625 298.732421875 l 1
 198.775390625 298.732421875 213.628942518 101.422851562 438.4921875 101.422851562 c 0
 573.721412017 101.422851562 658.895507812 152.73828125 658.895507812 152.73828125 c 5
 696.4296875 63.814453125 l 5
 696.4296875 63.814453125 603.583613274 -14.6845703125 416 -14.6845703125 c 0
EndSplineSet
EndChar

StartChar: uni20BD
Encoding: 8381 8381 207
Width: 783
Flags: W
HStem: 105.771 126.988<33.8135 582.187> 275.987 152.777<315.679 552.508> 578.953 164.858<327.542 552.586>
VStem: 135.188 284.598<4.06836 236.766> 139.96 296.703<335.171 574.604> 576.568 176.472<454.721 556.122>
LayerCount: 2
Fore
SplineSet
583.012695312 99.314453125 m 1xe4
 32.0419921875 105.771484375 l 1
 33.8134765625 232.759765625 l 1
 582.186523438 231.032226562 l 1
 583.012695312 99.314453125 l 1xe4
436.663085938 574.603515625 m 1xec
 419.786132812 -2.6669921875 l 1
 135.188476562 4.068359375 l 1xf4
 139.959960938 715.504882812 l 1
 139.959960938 715.504882812 240.369671714 743.811523438 414.71484375 743.811523438 c 0
 629.891601562 743.811523438 753.040039062 648.500985456 753.040039062 493.346679688 c 0
 753.040039062 330.345435724 633.585915503 275.987304688 415.94921875 275.987304688 c 0
 215.409130421 275.987304688 29.90234375 290.34765625 29.90234375 290.34765625 c 1
 35.7080078125 444.825195312 l 1
 35.7080078125 444.825195312 208.047038681 428.764648438 460 428.764648438 c 0
 532.257615111 428.764648438 576.568359375 448.005103611 576.568359375 501.87890625 c 0
 576.568359375 559.339044187 532.429499336 578.953125 486 578.953125 c 4
 453.980520949 578.953125 436.663085938 574.603515625 436.663085938 574.603515625 c 1xec
EndSplineSet
EndChar

StartChar: uni20B3
Encoding: 8371 8371 208
Width: 886
Flags: W
HStem: -14.5732 21G<148.709 236.022 643.105 743.693> 117.383 91.5586<33.6338 847.024> 247.383 91.5586<53.6338 827.024> 713.415 20G<296.928 584.7>
LayerCount: 2
Fore
SplineSet
33.6337890625 208.94140625 m 1
 847.024414062 212.043945312 l 1
 856.024414062 117.107421875 l 1
 30 117.3828125 l 1
 33.6337890625 208.94140625 l 1
296.927734375 730.033203125 m 1
 578.319335938 733.415039062 l 1
 806.15234375 19.2265625 l 1
 653.170898438 -14.5732421875 l 1
 439.75390625 409.478515625 l 1
 225.9375 -14.5732421875 l 1
 69.3154296875 25.9873046875 l 1
 296.927734375 730.033203125 l 1
53.6337890625 338.94140625 m 1
 827.024414062 342.043945312 l 5
 836.024414062 247.107421875 l 5
 50 247.3828125 l 1
 53.6337890625 338.94140625 l 1
EndSplineSet
EndChar

StartChar: uni20AE
Encoding: 8366 8366 209
Width: 722
Flags: W
HStem: 569.351 158.649<485.068 687.187> 577 158<36.1865 231.022>
LayerCount: 2
Fore
SplineSet
603 332 m 5x00
 608 248 l 5
 141 137 l 5
 136 210 l 5
 603 332 l 5x00
601 473 m 5
 605 377 l 5
 135 253 l 5
 127 327 l 5
 601 473 l 5
36.1865234375 735 m 1x40
 692.186523438 728 l 1
 687.186523438 565 l 1
 485.068359375 569.350585938 l 1x80
 518.046875 -0.548828125 l 1
 213.884765625 -1.5478515625 l 1
 231.022460938 572.911132812 l 1
 33.1865234375 577 l 1
 36.1865234375 735 l 1x40
EndSplineSet
EndChar
